<?xml version="1.0" encoding="UTF-8"?><svg id="b" xmlns="http://www.w3.org/2000/svg" viewBox="0 0 1062.02 786.8"><defs><style>.d{fill:#060606;}.e{fill:#699675;}.f{fill:#fff;}.g{fill:#f2d8bf;}.h{fill:#95b8e0;}.i{fill:#886645;}</style></defs><g id="c"><path class="d" d="m0,504.87c2.08-3.73,2.1-8.06,2.73-12.04,2.08-13.24,8.72-24.23,15.89-34.97,14.85-22.22,36-36.94,59.28-49,10.87-5.63,22.13-10.41,33.52-14.88.59-.23,1.19-.77,1.75-.72,7.06.6,8.28-4.43,8.57-9.5.6-10.82,2.7-21.46,3.21-32.3.67-14.2,1.46-28.58,8.36-41.5,4.09-7.66,8.86-14.98,13.52-22.31,4-6.28,5.36-13.04,5.05-20.4-.27-6.33-.7-12.78,1.9-18.84,3.09-7.22,11.37-14.96,20.74-10.28,2.37,1.18,2.53-.92,3.11-1.9,5.98-10.12,11.44-20.58,17.82-30.44,11.12-17.22,22.34-34.33,35.59-50.14,8.43-10.06,16.44-20.46,25.5-30,9.46-9.95,19.54-19.26,30.09-28.01,12.55-10.41,25.77-19.98,39.13-29.33,1.59-1.11,3.41-1.89,4.99-3.02,3.39-2.41,8.42-3.5,3.16-9.79-4.38-5.24-.35-14.63,6.47-19.45,7.87-5.56,17-7.97,26.17-8.85,17.03-1.64,33.4-5.44,49.47-11.16,9.11-3.25,18.41-5.96,27.69-8.68,4.08-1.2,8.51-.93,12.65-1.12,7.07-.32,14.16-.98,21.2-1.47,10.36-.72,20.84-1.57,30.89-4.77h19.98c.9,1.22,2.11,1.86,3.61,1.98,4.75.38,8.77,2.41,11.77,6.01,3.78,4.51,8.48,6.13,14.22,6.09,4.23-.03,8.45-.58,12.75.73,2.67.81,5.21,1.64,6.58,3.86,1.98,3.21,5.16,3.96,8.15,4.14,11.14.68,21.96,3.08,32.87,5.12,23.48,4.4,46.13,11.29,68.16,20.62,22.93,9.71,43.45,23.24,62.93,38.42,12.66,9.86,24.57,20.67,35.57,32.42,1.58,1.69,3.02,3.14,5.87,2.31,12.04-3.5,21.61.2,29.13,10.14,5.66,7.48,10.11,15.67,14.7,23.74,4.62,8.12,11.14,14.07,18.44,19.38,4.82,3.5,8.37,7.98,10.44,13.41,2.23,5.85-2.43,12.84-9.56,15.09,1.95,6.17,5.33,8.84,12.6,8.9,15.23.13,30.43,1.82,45.63,3.37,16.88,1.73,33.46,4.61,49.75,9.14,21.04,5.85,41.21,13.61,59.57,25.94,19.99,13.43,32.96,31.67,37.9,54.89,6.54,30.71.08,59.74-15.91,86.35-13.24,22.02-32.73,37.35-55.79,48.54-14.14,6.86-28.8,12.23-43.53,17.48-7.11,2.53-14.38,4.81-21.76,6.27-5.36,1.06-7.76,3.09-6.38,8.59-.01,2.01-.93,4.12.65,5.95.45,5.67.47,11.34,0,17.01-1.56,1.1-.64,2.6-.65,3.95-.92,22.06-11.61,37.93-30.33,49.12-6.42,3.84-13.29,7.03-18.56,12.89-3.92,4.36-4.69,9.6-5.98,14.61-1.86,7.25-5.75,11.88-12.93,13.67-2.76.69-4.13,2.32-5.32,4.91-8.52,18.47-19.04,35.79-31.62,51.74-10.07,12.76-22.1,23.68-34.81,33.8-13.23,10.53-27.27,19.85-41.78,28.58-7.19,4.32-11.41,12.33-17.44,18.25-12.05,11.82-23.98,23.63-39.77,30.78-8.24,3.74-16.8,6.12-25.53,6.42-11.58.39-21.94,4.43-32.28,8.55-10.75,4.28-21.59,6.86-33.17,6.13-2.1-.13-4.23.25-6.35.4-.67-1.65-1.54-2.25-2.86-.55-7.53-1.01-14.93-.53-22.5.48-10.85,1.45-21.29,4.64-32.04,6.41-.19.03-.31.51-.46.78h-21.98c-3.28-2.34-7.03-.34-10.5-1.18-13.28-3.21-26.7-5.13-40.43-4.76-7.13.19-14.36.47-21.41-.39-10.7-1.32-21.26-3.72-31.66-6.68-10.99-3.12-22.69-4.91-31.88-12.1-10.24-8.02-16.83-19.72-3.31-28.67-13.77-5.67-27.11-11.88-38.79-21.13-2.98-2.36-5.34-5.37-9.68-6.22-9.37-1.84-18.85-3.22-28.01-6.17-14.38-4.62-28.77-9.27-43.52-12.67-17.44-4.02-34.9-7.93-52.31-12.11-17.4-4.17-34.91-8.03-52.06-13.09-16.48-4.86-32.52-11.18-48.21-18.3-26.99-12.26-50.84-28.34-67.58-53.68-8.17-12.38-14.34-25.33-17.44-39.91-1.19-5.61-1.56-11.44-3.65-16.86v-27.99Zm645.27-83.99c4.88-1.02,8.79-3.97,13-6.33-4.62,1.52-9.23,3.07-12.96,6.38-.35.14-.71.28-1.06.42.11.03.27.13.34.09.24-.16.46-.37.68-.56Zm-242.24,66.42c-2,.6-3.26,2.23-4.82,3.45-5.34,4.17-9.76,4.63-13.24.92-3.48-3.71-6.63-7.76-9.68-11.83-.73-.97-2.38-2.16-1.23-3.85,1.16-1.7,3.25-1.53,4.54-.97,3.41,1.46,6.88,1.01,10.28.81,10.73-.64,13.29-5.85,7.66-14.9-4.17-6.72-10.32-11.63-15.63-17.3-5.44-5.79-9.06-12.14-9.31-20.33-.34-11.13-6.39-17.02-15.12-13.88-8.18,2.95-15.13,1.92-22.12-2.51-1.64-1.04-3.47-1.78-5.21-2.66-3.49,9.09-11.28,13.59-20.49,12.78-5.8-.51-11.53.48-16.95,2.38-8.93,3.13-13.46,13.34-10.61,23.49,1.19,4.23,1.06,9.78,6.81,10.86,14.56,2.74,27.5,10.33,42.09,13.31,9.82,2.01,17.71,10.37,28.47,10.89,1.81.09,1.46,1.66.88,2.62-.67,1.11-1.76,1.96-2.64,2.95-4.34,4.89-4.42,7.01-.05,11.67,2.11,2.25,2.67,4.53,1.07,7.18-1.9,3.14-1.23,5.54,1.72,7.62,1.86,1.31,3.4,3.09,5.29,4.36,3.22,2.18,6.32,3.59,9.95.03,2.37-2.32,5.72-3.64,8.6-5.44,8.51-5.32,16.11-11.53,20.32-21.02.37-.11.9-.19.55-.71-.1-.15-.73.05-1.11.08Zm65.34,288.31c4.52.62,9.12.87,13.53,1.92,18.33,4.38,36.56,4.43,54.77-.5,14.01-3.8,28.17-6.07,42.73-4.32.51,1.47,1.15,1.47,1.9.16,2.49.05,4.99.07,7.48.14,10.01.29,19.74-.73,28.89-5.33,10.53-5.31,21.75-8.04,33.53-8.92,9.92-.74,19.46-3.5,28.19-8.21,16.69-9,28.83-23.4,41.98-36.56.74-.74,1.08-1.87,1.82-3.19-12.83.54-24.93-1.45-36.78-4.4-18.25-4.54-36.41-9.11-55.45-8.65-7.8.19-17.56-8.42-18.68-15.62-1.53-9.79,5.12-17.36,13.48-20.18,8.52-2.87,16.85-.42,24.96,2.18,7.92,2.54,15.69,5.56,24.25,4.71,3.41-.34,7.69-.6,8.83-3.83,1.19-3.36-2.49-5.78-5.02-7.85-6.91-5.67-15.53-6.05-23.69-6.09-9.58-.05-17.77-2.64-25.28-8.32-13.73-10.41-29.35-12.71-45.83-9.73-12.2,2.21-24.29,5.02-36.34,7.95-5.59,1.36-10.93,3.66-15.79,6.94-3.15,2.13-3.87,4.18-.83,7.07,3.9,3.7,8.28,6.72,12.51,9.98,6.66,5.15,14.68,8.54,19.34,16.39,4.32,7.29,4.44,12.9-1.45,19.06-11.49,12.01-26.32,16.25-42.15,17.36-9.93.7-19.95.03-29.93.12-15.06.13-29.67,2.94-44,7.53-15.19,4.86-30.73,7.86-46.71,8.45-11.1.41-22.08,1.51-32.76,4.88-5.52,1.75-6.87,4.54-4.35,9.77,3.27,6.77,8.86,10.86,15.74,13.26,9.71,3.39,19.87,5.21,29.7,8.11,14.36,4.24,28.93,4.81,43.67,4.75,4.97-.02,9.97-.5,14.92.45.74,1.28,1.83.65,2.83.52ZM373.31,71.36c-2.83-1.56-5.64-1.83-8.43.11-6.03-1.93-12.75-1.62-18.23-5.13-2.43-1.55-4.01-1.29-6.24.09-22.87,14.04-44.04,30.42-63.82,48.42-19.67,17.9-37.15,37.99-52.76,59.58-6.88,9.52-13.58,19.2-19.9,29.1-7.89,12.35-15.57,24.85-22.23,37.95-1.36,2.68-1.87,5.05-.79,7.7.96,2.35,1.24,4.79.89,7.22-1.56,10.92,3.63,18.4,11.85,24.69,9.81,7.5,17.77,16.52,20.81,28.91,1.97,8.04,3.59,16.16,5.35,24.25,1.41,6.48,2.43,13.34,6.46,18.61,5.72,7.48,13.3,12.86,22.42,15.96,4.45,1.51,7.63,1.44,10.52-3.04,2.45-3.81,6.03-6.06,11.29-4.05,4.44,1.7,7.64,4.75,8.88,8.75,2.16,6.99,6.9,9.65,13.45,10.34,2.16.23,4.36.04,6.58.04.66-9.03,2.13-17.93,7.67-25.65,1.05-1.47,2.15-3.37,1.45-5.14-2.28-5.8-3.77-11.77-4.69-17.92-.2-1.32-2.22-2.77-.61-3.87,1.41-.97,3.35-.57,5.08.53,5.92,3.75,7.2,3.25,8.28-3.31.28-1.72.84-2.83,2.38-3.32,2.1-.67,2.28,1.12,2.99,2.42,2.56,4.72,4.83,5.27,9.21,1.81,3.16-2.49,6.5-4.55,10.35-5.53,8.4-2.12,14.97-7.17,21.33-12.69,7.11-6.17,14.8-9.89,24.3-5.27.9.44,1.92,1.46,3.49.18-1.62-7.8,4.62-13.94,5.34-21.29.73-7.39,6.09-10.17,10.93-13.42,2.1-1.41,5.48-1.16,6.77,2.59,1.11,3.23,1.18,6.3.17,9.57-.42,1.37-1.36,3.54.86,4.25,2.08.66,3.74-.57,4.8-2.48,1.26-2.28,1.65-4.98.86-7.18-1.53-4.31-.64-8.78-1.65-13.14-.79-3.41-1.79-3.88-4.41-2.35-7.98,4.67-14.84,1.6-21.01-4.55-3.68-3.67-3.8-6.37-.05-10.03,4.66-4.56,8-9.59,9.6-16.17,1.33-5.5,3.98-10.91,9.73-13.59,5.16-2.4,10.55-4.19,16.1-5.44,5.73-1.29,10.79-3.5,13.87-8.91,1.79-3.15,3.58-6.3,5.54-9.34,2.98-4.63,6.35-8.58,12.63-8.79,4.27-.14,7.73-2.17,9.56-6.41,3.6-8.32,10.97-12.43,18.95-14.18,10.83-2.37,21.99-4.2,33.16-3.18,5.6.51,12.34-.1,15.6,6.28,5.23,10.25,14.34,14.74,24.78,17.32,3.72.92,6.76-.07,8.25-4.12.74-2.01,1.81-3.75,4.1-4.69,6.32-2.59,12.75,2.1,13.3,9.82.1,1.37-.8,3.25.84,4,1.66.76,3.13-.71,4.42-1.58,2.24-1.51,4.07-3.57,4.52-6.34.45-2.8,1.88-5.24,2.52-7.91,1.39-5.78,5.02-7.81,10.6-6.94,9.52,1.48,17.79-1.53,25.69-6.62,3.51-2.26,7.16-4.48,11.4-5.4,8.12-1.76,15.93-1.81,23.42,2.63,2,1.18,4.99,3.24,6.16-1.63.43-1.77,2.81-2.53,4.76-3.07,5.78-1.61,10.57-3.93,12.91-10.4,2.43-6.7,7.34-10.42,15.36-9.67,6.95.64,13.4,2.96,20.09,4.41,7.4,1.6,10.13.82,14.07-5.38,4.87-7.65,10.69-14.15,19.71-16.87,3.12-.94,2.95-2.18.81-4.11-13.54-12.22-27.62-23.8-42.96-33.66-14.66-9.42-29.76-18.04-46.23-24.16-13.87-5.15-27.86-9.96-42.17-13.56-12.47-3.14-25.2-5.4-37.93-7.25-7.62-1.11-15.51-3.12-23.02,1.77-3.05,1.99-4.66,3.29-3.47,7.21,2.43,7.98-.23,11.92-8,15.23-5.85,2.49-12.07,2.65-18.01,4.35-9.4,2.69-18.8,5.36-28.28,7.73-5.85,1.46-11.44,1.24-15.59-4.35-2.93-3.95-2.05-7.47,2.67-9.11,3.54-1.23,7.38-1.2,10.83-2.89,3.36-1.64,4.24-5.13,1.66-7.87-1.5-1.59-3.39-2.6-5.53-3.22-6.64-1.93-12.93-1.11-19.14,1.88-7.7,3.7-15.57,7.51-24.43,5.99-8.43-1.44-16.85-.85-25.27-.83-8.22.02-16.09,2.05-23.53,5.62-14.48,6.95-27.53,17.11-43.97,19.68Zm248.88,247.37c-.12-1.25-.75-1.53-1.83-.96-3.37-.96-6.83-.69-10.27-.68-1.48-1.07-3.03-1.01-4.61-.25-4.31-.28-8.62-.68-12.93-.82-4.34-.14-7.94-1.93-9.86-5.61-1.89-3.61.68-6.72,2.88-9.43,3.31-4.08,7.54-7.01,12.5-8.74,9.3-3.25,19.04-4.16,28.76-4.27,6.06-.07,11.77-1.53,17.56-2.67,4.28-.84,7.11-3.59,8.34-8.23,1.33-5.03.36-9.61-1.52-14.06-1.76-4.16-1.05-7.65,1.46-11.14,2.32-3.23,5.5-5.3,9-6.92,6.35-2.93,13.03-4.36,19.98-5.38,10.76-1.57,21.42-2.11,32.18-.65,4.72.64,9.42,1.41,14.15,1.94,12.33,1.39,23.62-1.68,34.34-7.72,6.2-3.49,13.01-4.82,20.19-4.19,8.43.74,12.51,5.14,12.68,13.42.09,4.17-1.94,7.35-3.99,10.54-4.15,6.5-9.71,11.81-14.98,17.37-.74.79-2.17,1.41-1.79,2.75.42,1.45,1.95.95,3.01,1.1,7.79,1.07,15.61.34,23.42.33,12.84-.01,25.73-2.1,38.51,1.86,4.83,1.5,6.91,4.33,7.51,8.56.64,4.43-.9,8.23-5.39,10.16-7.38,3.17-15.13,4.11-23.1,3.94-20.11-.43-34.68,10.61-48.34,23.53-1.66,1.57-1.45,2.66.57,3.77,12.32,6.74,24.23,14.39,36.98,20.17,25.49,11.56,52.54,15.83,80.48,14.69,3.32-.14,4.57-1.26,4.02-4.41-1.68-9.66-.94-19.48-2-29.21-1.99-18.44-5.6-36.54-11.35-54.08-7.43-22.65-17.38-44.3-29.32-64.94-1.51-2.62-2.17-6.24-5.96-7.51-7.9-2.65-15.7-5.63-23.51-8.54-15.41-5.74-31.01-8.12-46.95-2.39-15.09,5.42-30.7,4.32-46.22,3.77-3.99-.14-8.07-1.57-11.85-3.07-5.34-2.12-8.22-7.27-7.91-13.01.41-7.57,6.48-10.08,12-12.44,18.12-7.77,36.92-5.78,55.63-2.87,7.39,1.15,14.62,2.28,21.89-.48,5.05-1.91,5.2-2.58,2.04-6.84-4.56-6.15-10.89-10.65-15.33-16.91-2.16-3.05-3.65-5.94-.66-9.31.67-.76.89-1.7.5-2.79-2.56-7.29-12.52-11.64-19.66-8.72-7.39,3.02-11.57,9.16-15.52,15.54-3.38,5.46-9.49,8.53-14.74,6.59-5.47-2.02-11.21-2.75-16.78-4.27-8.66-2.36-14.18-.46-17.06,6.28-3.05,7.13-7.7,11.59-15.28,13.18-1.45.3-3.5.58-3.76,2.71-.63,5.31-3.92,4.24-6.83,2.58-5.5-3.13-11.24-4.24-17.56-4.27-8.23-.04-14.46,4.23-21,8.09-6.12,3.61-12.52,6.25-19.78,4.99-9.06-1.56-9.16-1.71-11.83,6.97-2.13,6.95-4.72,13.3-12.37,16-2.23.78-4.37,2.13-6.51.5-2.02-1.53-.97-3.54-.22-5.44.29-.73.15-1.64.15-2.48,0-3.17-.73-6.14-4.08-7.2-3.69-1.17-5.27,1.2-6.55,4.34-1.81,4.47-5.83,6.43-10.12,5.22-11.11-3.13-21.97-6.94-27.95-18.22-2.5-4.72-6.92-6.48-12.07-6.53-10.95-.11-21.72,1.63-32.45,3.42-7.79,1.3-14.37,4.77-17.88,12.4-2.22,4.81-6.32,7.56-11.14,8.05-7.09.72-10.22,4.9-12.61,10.84-2.74,6.82-7.06,12.52-14.3,15.14-4.76,1.73-9.58,3.57-14.53,4.48-7.67,1.41-12.01,5.8-13.71,13.13-1.67,7.2-4.87,13.44-10.89,17.96-2.12,1.59-2,2.97-.23,4.85,6.31,6.68,9.69,6.16,18.11,3.53,2.74-.86,6.39-2.44,7.2.8,2.17,8.64,3.19,17.6,2.1,26.55-.44,3.59-5.3,6.48-9.28,5.66-3.89-.8-3.54-4.19-3.44-7.24.08-2.49,0-4.99.03-7.49.02-1.31-.46-2.87-1.81-1.85-3.1,2.35-7.66,2.87-8.59,8.1-.72,4.11-1.1,8.6-3.85,12.15-2.24,2.89-2.83,6.16-2.79,9.73.07,6.01-1.29,7.03-6.71,4.63-7.11-3.15-13.52-2.4-19.47,2.52-2.05,1.69-4.1,3.4-6.06,5.19-3.99,3.65-8.45,6.53-13.63,8.08-5.64,1.69-10.74,4.2-15.59,7.6-2.82,1.98-6.51,4.23-10.08.57-1.58-1.62-2.17-.21-2.91.96-1.6,2.51-4.51,3.71-6.83,2.99-4.59-1.44-3.39,1.49-3.6,3.7-.13,1.45.62,2.54,1.17,3.73,2.65,5.8,2.91,11.4-.67,17.06-3.71,5.87-5,12.53-5.41,19.4-.16,2.64.17,3.95,3.54,4.39,7.82,1.01,14.71,4.15,19.65,10.87,1.5,2.03.87,5.09,3.44,6.38,8.39,4.22,16.08,9.83,26.73,5.11,7.41-3.28,15.76,2.56,16.4,10.93,1.01,13.13,7.3,23.03,16.7,31.48.62.56,1.15,1.21,1.76,1.77,3.69,3.38,6.67,7.35,9.5,11.44,4.16,6.03,2.5,12.09-3.78,15.79-5.29,3.11-11.15,2.99-17.94,3.33,2.95,3.21,5.23,5.56,7.35,8.04,2.8,3.28,5.5,2.9,8.33.09,3-2.96,6.31-5.5,10.52-6.41,3.6-.78,4.25-2.54,3.19-6.02-1.53-4.97,2.22-11.91,6.45-11.86,5.02.06,4.26-2.05,2.61-5.01-1.57-2.82-4.09-4.8-6.3-7.06-2.92-2.99-6.08-5.91-7.19-10.05-1.29-4.81-4.12-8.28-8.01-11.06-1.84-1.31-3.44-2.83-3.16-5.23.78-6.69-.92-12.26-5.85-17.14-2.68-2.66-1.19-5.82,2.6-6.49,5.13-.91,9.49.9,13.3,4.25,4.92,4.33,8.88,9.49,12.47,14.91,4.95,7.47,10.35,14.61,17.01,20.56,6.24,5.57,7.94,11.55,5.02,19.49-2.55,6.94-.64,9.94,6.47,12.73,1.84.72,3.78,1.33,5.43,2.37,2.67,1.68,3.34.81,4.01-1.98,2.09-8.74,4.59-10.1,12.64-6.67,4.07,1.74,6.8,1.67,8.84-2.76,1.65-3.57,4.78-4.45,7.77-1.9,3.99,3.41,8.43,4.35,13.38,3.87,3.24-.31,3.85,1.37,3.9,4.19.06,3.77-2.63,5.12-5.17,6.62-2.95,1.74-3.61,3.55-.97,6.23,2.65,2.69,3.83,5.99,4.2,9.86.5,5.28,1.53,10.64,7.54,12.82,4.63,1.68,8.7,4.35,11.94,7.94,1.62,1.8,2.92,1.04,3.63.07,4.82-6.62,11.13-5.11,17.45-3.43,3.11.82,6.58,1.86,8.99-.41,3.88-3.67,7.5-3.34,11.64-.99,2.58,1.46,5.46,1.11,8.27,1.1,3.61-.01,5.39,1.17,3.92,5.18-2.71,7.42-1.91,14.93.67,22.13,1.16,3.24.66,5.53-1.56,7.58-3.84,3.53-6.63,7.65-8.74,12.45-2.08,4.74-6.23,7.47-11.39,7.44-12.37-.09-24.72-.47-36.76-4.07-4.31-1.29-8.91-1.61-13.38-2.37-.11.4-.23.81-.34,1.21,2.04.96,4.16,1.77,6.1,2.9,4.26,2.5,8.41,5.06,9.97,10.33,2.4,8.11-1.15,20.78-8.89,26.1-4.61,3.17-5,6.68-5.34,11.49-.82,11.85-4.1,22.96-16.69,27.4-4.97,1.75-5.09,4.3-5.33,8.52-.68,12.08-4.86,22.79-18.77,25.76-2.73.58-3.06,2.32-3.06,4.74-.02,8.17-3.21,14.76-10.27,19.21-2,1.26-3.97,2.56-5.99,3.86,1.33,1.51,2.92,1.09,4.37,1.14,9.86.28,18.93,3.13,26.73,9.14,2.15,1.66,4.12,2.19,6.31,1.73,4.95-1.05,9.92-.79,14.89-.84,11.6-.12,23.27.87,34.78-1.16,10.15-1.79,19.55-5.77,27.23-12.74,5.6-5.08,5.22-11.04-.17-16.44-1.28-1.29-2.8-2.33-4.13-3.58-6.01-5.68-13.52-9.24-20.01-14.28-12.49-9.7-11.93-16.76,2.2-23.84,9.07-4.55,19.05-5.98,28.67-8.63,2.94-.81,4.09-1.64,2.54-4.69-1.65-3.24-2.91-6.65-5.29-9.51-3.2-3.87-5.77-8.16-7.36-12.95-2.8-8.47,1.59-15.09,9.07-12.99,8.69,2.43,17.04,6.17,24.38,11.52,6.72,4.9,8.61,12.78,10.7,20.27.58,2.09.96,2.93,3.31,3.16,10.36,1.03,20.59,2.56,29.21,9.27,2.84,2.21,5.96,4.1,9.08,5.91,8.28,4.79,17.61,3.8,26.59,4.55,10.31.86,18.6,5.07,23.78,14.14,3.13,5.47.73,10.27-4.88,13-8.18,3.98-16.16,2.65-24.4.46-9.08-2.42-17.53-7.34-27.45-6.5-6.08.52-12.41,4.97-13.85,10.48-1.14,4.37,2.02,9.72,7.61,12.82,2.23,1.24,4.71,1.57,7.19,1.65,10.08.33,20.18,1.16,29.87-2.96,2.68-1.14,5.73-1.52,8.65-1.98,16.04-2.52,30.33-8.14,40.27-21.92,2.05-2.84,4.79-5.21,7.87-6.85,7.49-3.99,11.95-10.4,14.97-18.02,3.35-8.46,8.2-15.92,14.22-22.74,6.27-7.11,12.32-14.43,18.31-21.78,1.31-1.6,4.17-3.08,2.12-5.86-1.96-2.66-4.44-3.28-7.86-2.26-7.95,2.39-15.27,5.87-22.14,10.54-8.27,5.62-20.27,5.63-26.23-.28-2.72-2.7-5.34-3.72-9.09-3.79-8.51-.17-11.71-3.01-14.5-11.5-.45-1.38-1.26-2.74-2.21-3.85-2.07-2.46-3.88-5.35-3.97-8.33-.17-5.84-2.78-9.31-8.04-11.22-1.1-.4-2.2-1.1-2.08-2.5.14-1.61,1.56-1.32,2.64-1.62,2.05-.57,4.12-1.15,6.04-2.05,9.58-4.47,14.67-2.79,19.67,6.64,3.18,6,7.66,7.31,13.5,3.71,4.26-2.63,8.68-4.79,13.48-6.22,13.74-4.08,24.65-11.64,31.56-24.66,6.11-11.53,15.28-20.39,25.92-27.81.79-.55,2.39-.7,1.89-2.44-6.34,0-12.68-.28-18.98.06-12.77.69-25.34,3.6-38.34,1.95-9.1-1.15-16.76-4.34-22.14-11.6-1.87-2.52-3.53-2.89-6.09-2.92-7.31-.08-14.65,1.14-21.93-.12-5.99-1.04-8.38-4.86-6.95-10.72.57-2.33,1.29-4.89-.07-6.77-3-4.12-3.71-8.69-3.5-13.84-7.71,1.82-14.42,5.09-21.41,7.6-14.03,5.05-28.21,9.5-41.91-1.02-1.37-1.05-2.5-.28-3.68.3-6.32,3.09-13.05,2.41-19.58,1.49-3.06-.43-5.43-.29-7.91,1.37-5.68,3.8-11.01,8.06-16.18,12.51-7.87,6.77-16.71,11.1-27.32,9.46-3.03-.47-4.93.24-6.96,1.98-4.61,3.96-10.45,5.23-15.99,7.11-1.31.45-2.66.06-3.55-1.17-.93-1.27-.54-2.58.14-3.73,2.11-3.54,4.36-6.96,7.52-9.74,2.98-2.62,6.21-5.29,7.35-9.25,1.48-5.18,5.04-8.58,9.21-11.78-2.58-.66-4.58.11-6.35,1.36-3.93,2.77-7.61,3.19-11.61-.09-2.26-1.85-4.98-3.24-7.66-4.45-4.19-1.9-7.42-4.55-7.84-9.38-.45-5.24,3.02-8.13,7.11-10.31,2.54-1.36,4.35-2.95,3.86-6.13-1.59-10.2,4.8-16.53,10.9-23.21,3.86-4.23,8.3-5.72,13.71-5.12,1.61.18,3.19.69,4.79.97,3.2.54,7.43.03,8.49,3.79,1.03,3.68-3.41,4.72-5.31,7.02,5.44,3.25,5.41,3.25,5.52,8.41.03,1.37-.87,3.21,1.26,3.79,1.69.46,3.38.15,4.54-1.3,1.79-2.24,3.71-4.05,6.65-4.93,1.67-.5,3.62-1.6.48-4-4.53-3.45-2.78-14.03,2.42-16.83,2.91-1.56,6.5-2.17,8.95-4.21,5.61-4.66,11.45-4.58,17.7-2.18,1.69.65,3.19,1.16,4.43-.57,1.61-2.23,4-3.41,6.26-4.7,22.3-12.71,45.77-22.89,69.65-32.19,3.81-1.48,7.78-2.73,11.55-5.4-9.88-2.57-18.97-5.54-27.8-9.31-12.53-5.35-23.31-12.66-29.4-25.45Zm-245.42,386.09c12.78.34,27.05-.58,41.29-3.52,8.5-1.75,16.76-3.76,24.31-7.92,5.84-3.22,10.32-7.64,10.23-15.29-.04-3.6-1.44-4.1-4.42-4.06-5.82.09-11.65-.2-17.47-.16-2.67.02-4.21-1.03-4.22-3.68,0-2.81,2.25-2.37,4.01-2.37,8.49,0,16.98.11,25.46.03,6.26-.06,11.2-2.94,14.85-7.9,4.02-5.45,3.68-11.86,3.58-18.17-.03-1.91-1.63-1.55-2.86-1.96-9.39-3.14-18.75-6.39-28.11-9.64-1.87-.65-3.42-1.79-2.71-4.05.8-2.55,2.75-2.44,4.88-1.67,6.24,2.27,12.44,4.68,18.77,6.67,5.38,1.69,10.48,5.03,16.63,2.91,10.24-3.53,15.18-11.02,15.55-22.41.17-5.21-.65-7.52-6.54-8.75-15.11-3.15-28.97-10.05-42.89-16.56-.74-.35-1.55-.72-2.09-1.3-.88-.93-2.12-1.94-1.31-3.44.67-1.25,2.09-.88,3.16-.78,3.7.33,6.76,2.39,9.98,3.97,8.83,4.35,18.44,6.65,27.43,10.71,13.05,5.9,22.62,1.22,26.59-12.01,2.25-7.49.69-11.23-6.4-14.56-9.33-4.37-18.78-8.43-28.37-12.22-15.24-6.02-29.93-13.39-45.44-18.81-4.47-1.56-8.89-3.41-13.31-5.19-1.79-.72-3.1-2.1-2.87-4.23.2-1.77,1.46-2.58,3.17-2.5,1.55.07,2.44-.83,3.31-1.88,2.98-3.62,6.2-6.96,10.61-8.89,1.73-.75,2.53-1.72.41-3.05-1.84-1.16-4.21-2.32-2.43-4.97,1.9-2.82,4.15-.79,6.13.19,5.77,2.87,11.54,5.72,17.93,7.02,6.96,1.42,13.45.23,19.52-3.33,2.52-1.47,3.43-3.79,3.4-6.75-.04-3.14-2.37-4.02-4.47-4.62-7.39-2.1-12.52-7.19-17.66-12.44-13.86-14.14-32.98-12.91-44.19,3.28-7.54,10.89-16.43,19.92-28.08,26.37-7.63,4.22-13.72,10.4-19.45,17-7.08,8.16-14.04,16.46-22.71,23.11-13.42,10.29-28.36,16.56-45.38,16.62-19.96.07-39.93-.74-59.89-.56-16.8.15-33.6.81-50.41.62-16.72-.19-33.4-1.13-49.71-4.97-18.04-4.25-35.71-9.71-50.09-22.23-14.73-12.82-23.66-28.75-23.42-48.7.21-17.05,6.29-32.04,17.93-44.62,10.27-11.11,22.26-19.94,35.88-26.5,2.29-1.1,3.29-2.43,2.99-4.95-.76-6.33.64-12.62,1.3-18.82.56-5.26-1.03-4.32-4.2-3.17-16.43,5.98-32.36,13.03-47.29,22.17-15.86,9.71-30.19,21.18-41.43,36.27-10.37,13.92-18.24,29.23-19.75,46.42-1.27,14.49-1.5,29.21,3.07,43.79,3.5,11.19,7.73,21.84,13.47,31.94,15.67,27.59,40.32,44.55,68.43,57.22,21.3,9.6,43.26,17.61,65.95,23.05,22.82,5.47,45.71,10.72,68.52,16.28,18.3,4.46,36.63,8.61,54.59,14.56,30.61,10.13,62.36,13.88,96.24,13.38Zm286.95-296.97c2.66,0,5.33,0,7.99,0,1.78,0,3.87-.43,4.47,1.99.5,2.05-1.2,3.12-2.58,3.84-9.84,5.14-19.64,10.37-30.08,14.27-11.62,4.34-24.03,6.83-33.59,15.85-5.02,4.74-6.01,7.9-1.7,13.48,2.54,3.3,5.95,5.29,9.99,6.69,8.78,3.03,16.71-.76,24.48-3.18,12.91-4.01,25.64-8.67,38.62-12.49,2.5-.73,6.71-2.21,7.69,1.06,1.15,3.82-2.86,4.3-5.85,4.71-.46.06-.86.51-1.33.64-5.07,1.45-7.04,5.75-4.71,10.6,3.41,7.1,9.24,10.76,16.97,11.52,8.58.85,17.05.46,25.46-1.75,1.41-.37,4.11-1.76,4.79,1.58.66,3.2-1.89,3.57-3.81,4.1-2.36.66-4.92.6-7.27,1.27-.68.19-3.16-.34-2.03,2.47,3.2,7.89,9.74,13.08,17.87,13.36,4.99.17,10,.41,14.97.12,15.14-.89,30.25-2.04,45.44-2.46,7.99-.22,16.17-1.05,24.08-3.38,9.87-2.91,18.95-7.69,28.57-11.09,19.64-6.95,39.64-12.78,59.86-17.76,4.57-1.13,8.86-3.53,13.31-4.04,5.07-.58,9.81-2.01,14.56-3.38,21.07-6.09,41.61-13.57,61.01-23.95,17.56-9.39,32.91-21.41,43.98-38.19,17.06-25.88,24.78-54.05,18.77-84.98-2.18-11.24-6.2-22.07-13.07-31.46-9.44-12.88-22.09-21.9-35.97-29.47-19.02-10.37-39.61-16.1-60.51-20.86-13.35-3.05-26.9-4.97-40.59-6.16-11.99-1.04-23.97-2.03-35.98-2.61-5.38-.26-5.64,0-3.39,5.13,2.95,6.73,6.39,13.24,9.49,19.91.59,1.26,1.2,1.74,2.55,1.71,3.78-.07,7.58.67,11.27.75,12.02.27,23.9,1.55,35.79,3.11,17.77,2.33,34.78,6.98,50.19,16.31,13.35,8.08,20.71,19.89,18.29,35.82-1.85,12.14-7.55,22.87-16.11,31.85-13.65,14.32-30.95,22.46-49.43,28.05-13.45,4.06-27.34,6.21-41.52,6.64-15.96.48-31.6-1.51-47.1-4.8-22.98-4.88-43.8-15.16-63.56-27.44-14.38-8.93-30.04-12.7-46.46-13.12-11.09-.29-22.2-.71-33.23-1.43-7.77-.5-15.68-.3-23.43-2.3-9.82-2.54-19.31-5.68-28.41-10.24-3.75-1.88-8.19-3.66-11.88.8-3.15,3.81-2.99,7.4.21,12.7,2.99,4.96,7.35,8.45,12.06,11.45,9.68,6.16,20.62,9.32,31.44,12.83,9,2.92,17.42,3.03,26.38-.58,5.82-2.34,12.4-2.82,18.86-2.48,2.09.11,3.6.51,3.66,2.96.07,2.84-2.06,1.97-3.54,2.08-7.94.6-15.92,1.91-23.07,5.13-24.65,11.09-50.27,19.93-74.5,31.96-7.89,3.91-15.83,7.81-23.29,12.44-8.35,5.18-9.34,15.64-2.16,20.89,5.13,3.76,11.05,3.25,16.87.96,16.16-6.34,32.9-10.2,50.23-11.45Zm-307.96,124.07c-11.16-4.4-18.28-12.81-24.77-21.47-10.84-14.47-23.61-26.85-37.57-38.18-12.97-10.52-20.34-23.76-18.69-40.94.91-9.46,10.28-17.38,18.25-18.67,7.4-1.2,14.89-1.29,22.25-2.72,5.17-1.01,7.02-4.26,7.37-8.85.28-3.68-3.66-9.29-7.03-10.07-16.26-3.74-32.59-7.21-48.8-11.13-11.95-2.89-23.9-5.97-34.42-12.84-12.44-8.12-15.94-21.07-18.61-34.39-1.65-8.22-3.5-16.37-5.98-24.38-3.37-10.84-11.14-17.96-20.03-24.34-7.23-5.19-11.76-12.17-10.91-21.59.41-4.56-.6-8.97-1.28-13.37-.38-2.47-1.64-5.6-4.84-5.89-2.49-.22-5.65-1.34-7.5,1.15-3.84,5.16-6.65,10.66-5.48,17.63.63,3.81,1.97,7.67.91,11.69-2.32,8.78-5.81,16.97-11.09,24.45-3.63,5.14-7.01,10.5-9.63,16.28-5.71,12.59-6.07,26.12-7.04,39.55-.33,4.57-.67,9.15-1.22,13.7-1.2,10.02-2.58,20.03-3.78,30.05-.55,4.56-.75,9.16-1.28,13.72-1.06,9.16-1.36,18.19,1.16,27.27,2.79,10.06,8.1,19.06,11.3,28.96,4.15,12.82,6.46,26.3,12.87,38.32,3.68,6.9,8.36,12.79,17.05,14.03,8.61,1.23,17.19,2.94,25.04,6.99,18.65,9.63,35.62,21.73,51.54,35.35,4.17,3.57,8.27,6.1,14.38,5.77,11.78-.63,23.63.06,35.44-.27,5.66-.16,11.53-.62,16.88-2.3,18.73-5.88,33.41-17.61,45.51-33.51Zm555.07-45.36c.6-5.13-.96-10.69-.92-16.34.01-1.97-.61-2.59-2.66-2.05-9.95,2.62-19.98,4.94-29.89,7.69-13.79,3.82-27.4,8.19-40.54,13.99-10.4,4.59-21.69,6.91-32.16,11.12-15.57,6.27-28.27,16.67-37.57,31.02-4.85,7.48-8.66,15.79-16.54,21.05-6.7,4.47-14.09,7.17-21.56,9.79-5.59,1.96-10.74,4.57-14.55,9.31-3.53,4.4-5.85,8.98-3.13,14.76,3.93,8.39,12.85,11.03,22.37,7.1,7.91-3.27,14.67-8.61,22.85-11.45,15.33-5.31,30.81-10.17,45.92-16.21,5.81-2.32,13.13-1.68,18.05,4.41,1.76,2.18,3.61,4.34,5.7,6.2,5.58,4.96,11.47,9.38,19.66,7.63,7.84-1.68,9.02-8.1,10.66-14.56,1.59-6.27,4.09-12.12,9.79-16.26,6.03-4.37,12.76-7.55,18.74-11.95,7.15-5.26,14.7-10.21,18.63-18.56,5.37-11.41,7.53-23.56,7.17-36.71Zm-122.6-205.73c-5.43-.5-10.17.15-14.88-.82-4.76-.98-7.41-5.7-4.86-9.76,1.27-2.02,2.67-4.06,4.61-5.74,5.78-5.01,10.29-11.16,14.4-17.57,3.45-5.37,2.22-8.57-3.71-11.17-1.27-.56-2.42-.79-3.74-.81-7.18-.13-13.74,2.21-19.87,5.58-8.17,4.48-16.68,6.56-26.04,6.46-9.9-.11-19.57-1.98-29.37-2.67-12.34-.86-24.55.58-36.45,3.98-4.58,1.31-8.95,3.56-11.52,7.76-1.94,3.17.79,6.2,1.4,9.3,3.11,15.85-2.77,25.43-17.4,27.43-8.92,1.22-17.97,1.52-26.97,2.19-8.72.65-17.08,2.15-23.18,9.33-.93,1.09-2.83,1.76-2.13,3.53.54,1.37,2.03,1.86,3.57,2.08,8.95,1.27,17.94,1.9,26.98,2.03,2.22.03,3.53-1.14,4.17-2.82,3.58-9.38,11.78-9.82,20.68-6.9,6.44,2.11,12.42,5.4,18.75,7.87,7.82,3.05,14.98,1.41,22.33-1,1.86-.61,2.4-1.92,2.29-3.81-.28-4.84,2.59-7.94,6.68-9.22,9.37-2.95,18.79-3.45,28.16.66,8.05,3.53,10.92,7.69,8.91,16.09-.84,3.52.07,3.69,2.93,4.18,7.51,1.3,15.35.72,22.56,3.73,3.34,1.4,5.72.92,8.46-1.95,8.75-9.13,18.81-16.57,30.56-21.56,11.05-4.69,22.86-4.27,34.46-5.16,3.06-.23,5.8-.77,8.35-2.3,1.58-.94,3.11-2.05,2.66-4.32-.4-2.01-1.68-2.96-3.61-3.54-4.58-1.38-9.33-1.7-14.01-1.81-11.96-.26-23.92-.25-35.15.73Zm49.77,310.13c-8.4-3.02-15.41-7.81-20.75-15.1-3.19-4.36-7.96-4.62-12.98-3.74-3.58.62-6.46,2.73-9.77,3.93-6.99,2.53-13.95,5.11-21.09,7.2-.91.27-3.58.85-1.35,2.86,4.18,3.78,1.93,7.33-.56,10.47-4.83,6.07-10.03,11.85-15.02,17.79-7.03,8.38-14.78,16.25-18.44,26.96-2.21,6.48-5.19,12.55-11.29,16.3-6.69,4.12-12.04,9.66-17.12,15.51-5.24,6.04-11.81,9.96-19.26,12.73-7.38,2.74-15.16,3.72-22.68,5.83-1.73.49-4.92-.91-4.87,1.65.04,1.95,3.44,1.86,5.4,2.37,14.31,3.71,28.63,7.51,43.42,8.8,8.01.7,16.36,1.31,23.59-2.85,19.32-11.12,36.9-24.65,53.39-39.66,14.05-12.79,25.52-27.77,35.72-43.59,5.41-8.39,10.94-17.07,13.66-27.45Zm-649.46-24.24c.05-.59.21-1,.08-1.2-8.04-11.9-14.9-24.43-20.34-37.72-.55-1.34-1.28-1.71-2.78-2.06-5.45-1.27-10.32-3.67-14.31-7.89-6.14-6.49-9.15-14.58-12.25-22.66-3.87-10.08-5.56-20.85-9.76-30.85-3.64-8.67-7.18-17.42-10.14-26.34-1.98-5.97-1.58-6.28-6.94-3.12-12.16,7.17-23.75,15.09-32.21,26.73-13.54,18.62-17.59,38.84-7.4,60,8.55,17.74,23.81,28.62,42.11,35.15,9.83,3.51,20.01,5.57,30.32,7.42,14.52,2.6,29.03,2.8,43.63,2.55ZM876.49,250.48c4.98,9.22,7.51,18.32,10.17,27.22,7.57,25.29,11.53,51.25,11.25,77.73-.04,3.61.63,5.3,4.53,4.46,21.99-4.72,43.65-10.23,61.54-25.05,8.6-7.13,16.01-15.29,19.44-26.11,3.71-11.68,4.56-23.32-5.75-32.56-7.21-6.46-15.63-11.17-24.78-14.19-20.89-6.9-42.53-9.33-64.41-10.07-3.57-.12-7.23.65-12-1.43ZM500.17,32.94c5.21.14,9.2-.42,13.02,1.14,5.61,2.29,10.89,8.66,10.14,13.24-.93,5.65-5.59,7.39-10.43,8.98-1.46.48-2.79.86-4.23.75-1.58-.12-3.65.6-3.55,1.52.16,1.49,1.7,2.72,3.73,2.42,4.98-.75,10.36-.47,14.86-2.34,11.66-4.86,24.17-6.19,36.08-9.87,4.34-1.34,5.37-4.13,4.44-8.16-2.05-8.93-1.25-10.54,6.74-14,1.17-.51,2.17-1.4,3.24-2.12-1.02-1.05-1.82-2.25-3.42-2.69-4.23-1.15-8.49-1.99-12.89-1.78-7.28.35-13.5-1.92-18.37-7.44-1.93-2.19-4.38-3.82-7.02-4.36-9.75-2-19.61-1.55-29.46-.5-9.06.97-17.96,3.57-27.11,3.25-6.31-.22-12.52.76-18.69,1.33-5.35.5-10.84,1.08-16.25,2.39-11.89,2.87-23.19,7.31-34.68,11.32-13.99,4.88-28.78,5.51-43.21,7.99-6.94,1.19-13.56,3.05-19.11,7.35-5.59,4.33-8.49,11.08.16,16.55,15.86,10.04,32.09,9.35,48.05.58,8.22-4.51,16.07-9.68,24.74-13.39,13.68-5.85,28.12-6.02,42.47-4.83,7.47.62,14.39.74,21.48-2,6.59-2.55,12.82-6.98,19.27-5.33Zm67.11,491.45c.1-1.22.49-3.21.39-5.18-.11-2.1.28-4.49-3.41-4.55-2.23-.04-4.57-1.51-6.61-2.77-2.17-1.34-4.1-1.11-5.81.33-4.29,3.62-8.75,4.03-13.96,2-4.97-1.93-9.65-2.13-13.49,3.2-1.81,2.51-5.2,3.56-8.33.24-3.4-3.61-7.68-5.97-12.33-7.97-3.66-1.57-6.46-4.59-7.46-9.12-1.01-4.54-.71-9.5-3.98-13.47-5.6-6.8-5.33-8.21,2.18-13.22,1.22-.81,2.28-1.6,1.78-3.07-.48-1.4-2-.95-3.02-.86-4.14.37-7.83-.38-11.07-3.21-1.63-1.42-3.26-1.12-4.61.82-3.96,5.7-6.02,6.22-12.46,3.68-2.13-.84-4.4-2.85-6.59-.13-2.46,3.06-2.34,8.66-.46,11.29,5.13,7.15,12.99,10.29,20.23,14.35,2.85,1.6,4.38,3.84,4.29,7.16-.1,3.65,1.12,6.84,2.21,10.3,2.04,6.46,6.38,8.47,11.27,10.92,1.78.89,3.54,1.86,5.14,3.02,2.21,1.59,3.22,3.31,1.48,6.26-3.15,5.33-5.79,10.97-8.62,16.49-.87,1.7-2.47,3.92,1.29,3.91,7.62,0,14.81,2.29,22.02,4.16,6.28,1.63,12.67,1.36,18.93,2.4,5.63.93,11.25.68,16.84.36,2.6-.15,5.04-1.66,6.27-4.67,1.71-4.21,3.67-8.46,7.35-11.35,3.41-2.68,3.48-6.39,2.1-9.42-1.69-3.74-1.28-7.37-1.56-11.88Zm180.01-357.41c-2.83,0-7.21-.43-11.47.1-7,.86-14.18,1.78-19.83,6.6-4.72,4.02-3.98,8.36,1.47,11.37,5.27,2.91,11.18,3.41,16.88,3.75,13.11.79,25.92-1.22,38.54-5.14,12.36-3.84,24.99-4.33,37.42-.05,11.95,4.12,23.77,8.62,35.72,12.75,3.07,1.06,6.85,1.76,9.39-.55,3.01-2.74,1.73-6.58-.33-9.33-4.51-6.03-9.23-12.11-18.06-11.53-.99.06-2,.03-2.99,0-2.34-.07-3.65-1.49-3.99-3.61-.3-1.85.45-3.16,2.61-3.43,2.85-.35,1.53-2.12.71-3.14-5.85-7.31-9.18-16.15-14.46-23.78-5.49-7.94-11.17-15.66-22.82-14.18-4.13.53-6.93,2.67-8.58,5.72-1.45,2.68,2.02,4.18,3.63,5.8,4.88,4.94,9.71,9.9,13.65,15.65,3.37,4.93,2.72,9-2.44,11.76-6.45,3.45-13.53,5.16-20.78,3.99-10.88-1.76-21.73-3.23-34.26-2.76Zm-207.42,244.28c-1.13-.24-2.34-.48-3.54-.75-4.24-.95-9.6-2.26-12.51.18-6.92,5.82-14.58,12.04-13.31,22.81.58,4.96-1.7,7.74-5.76,9.53-3.1,1.37-4.32,3.46-4.4,6.88-.08,3.4,1.5,5.07,4.21,6.52,3.58,1.92,7.04,4.07,10.48,6.25,2.17,1.38,3.82,1.67,6.13-.23,3.33-2.73,7.39-4.11,11.88-3.63,2.84.3,5.5-.42,7.92-1.91,11.84-7.3,23.69-14.6,35.48-21.99,1.31-.82,3.73-2.38,2.78-3.59-3.79-4.83-2.89-8.82,1.07-12.8.27-.27.22-.99.12-1.46-.77-3.53.91-5.87,3.37-8.17,2.17-2.03,3.64-5.33,3.14-7.82-.45-2.27-4.33-2.26-6.72-2.99-2.53-.77-4.65,1.22-6.81,2.36-2.73,1.44-5.27,3.35-8.15,4.34-3.36,1.17-6.21,2.32-5.83,6.55.4,4.42,3.64,3.65,6.57,3.59,2.48-.05,4.09,1.2,4.4,3.77.27,2.19-.35,4.3-2.54,4.88-5.92,1.56-10.67,4.93-15.53,8.47-2.29,1.67-5.97,2.47-9.14.78-2.89-1.54-2.43-4.5-1.65-6.63,1.21-3.28.13-3.78-2.8-4.39-5.1-1.06-5.43-3.03-1.87-6.77,1.06-1.11,3.14-1.49,2.99-3.78Zm100.01,7.02c-6.76-.13-12.94,2.18-19.09,4.54-7.12,2.73-14.18,5.86-22.07,3.04-1.26-.45-2.29.33-3.23.92-4.93,3.04-9.83,6.15-14.71,9.28-1.16.75-2.04,1.71-1.24,3.3,1.64,3.26,1.59,3.09-1.97,3.66-4.06.65-8.17.54-11.99,3.08-8.44,5.6-17.12,10.88-25.98,15.8-7.05,3.91-13.92,7.81-16.59,16-1.04,3.2-2.19,8.15.9,9.4,2.91,1.18,3.68-3.77,5.01-6.37.76-1.49.2-4.76,2.42-4.19,3.04.77.83,3.71.84,5.7,0,.73-.52,1.53-.98,2.17-.98,1.37.39,2.15.92,1.83,1.8-1.07,4.72.25,5.59-3.04.61-2.29,2.29-4.25,2.76-6.73.29-1.53,1.77-2.1,3.14-1.68,1.54.48.93,2.15.69,3.01-.64,2.26-1.73,4.39-2.63,6.57,2.25.87,3.9-.3,5.67-1.09,5.9-2.63,10.32-7.22,15.29-11.14,15.31-12.04,33.03-20.63,47.86-33.4,9.06-7.8,19.47-13.72,29.4-20.64Zm-309.75,290.78c7.17,6.81,15.54,11.1,24.16,14.4,8.24,3.16,16.33,7.85,25.83,6.33,7.62-1.22,15.31-1.72,23.02-2.11,6.21-.31,12.39-1.42,18.55-2.4,13.16-2.09,25.72-6.61,38.64-9.71,2.58-.62,6.31.47,7.76-3.26-3.1-1.81-6.37-3.39-9.88-4.74-4.87-1.88-9.93-1.87-14.85-2.54-5.18-.71-10.67-1.05-15.85.25-13.23,3.33-26.56,5.59-40.25,5.58-13.74,0-27.46-.16-41.19-.87-5.23-.27-10.38-2.12-15.95-.93Zm-42.17-251.3c3.13,4.26,6.31,7.63,10.02,10.44,13.5,10.21,25.38,22.02,35.64,35.48,4.55,5.97,9.32,11.75,14.96,16.73,2.89,2.56,6.05,4.65,9.91,5.53,4.09.94,5.98-2.33,7.39-4.73,1.29-2.19-1.87-3.24-3.51-4.41-1.08-.77-2.28-1.39-3.31-2.23-4.28-3.46-7.22-7.4-4.73-13.34.71-1.7-.01-3.19-1.34-4.47-3.85-3.71-4.64-7.8-1.51-12.42,1.83-2.7,1.13-4.04-2.27-4.55-3.77-.56-7.4-2.15-10.39-4.46-4.18-3.22-8.89-5.54-13.84-6.06-6.47-.67-12.07-3.16-17.83-5.65-5.98-2.59-12.14-4.72-19.16-5.86Zm102.37-51.54c5.62,5.42,8.2,11.55,7.25,18.9-.26,2.04,1.52,2.8,2.69,3.88,2.27,2.12,5.29,3.8,6.08,6.95,1.62,6.44,5.68,11.1,10.27,15.47,2.17,2.07,3.93,4.39,5.3,7.11,3.45,6.82,2.51,8.76-4.86,9.36-.5.04-1.04-.07-1.49.09-3.73,1.4-2.09,4.67-1.75,6.85.35,2.26,2.24.59,3.46.02,4.53-2.14,9.28-3.22,14.31-2.99,1.79.08,3.68-.04,2.59-2.6-1.72-4.05-.52-7.97,1.11-11.39,2.21-4.64.64-7.83-2.39-10.99-3.78-3.94-7.87-7.59-11.17-11.99-5.52-7.38-10.98-14.83-16.75-22.01-3.44-4.29-7.61-7.77-14.64-6.65Zm-180.48,161.48c1.65,0,3.31.06,4.96-.01,2.72-.13,6.92,1.52,7.76-.89.92-2.65-2.42-5.26-4.87-7.18-.38-.3-.94-.4-1.28-.74-3.9-3.76-8.02-7.41-7.67-13.58.1-1.71-.75-2.8-2.21-3.55-8.98-4.62-17.32-10.54-27.29-13.12-1.08-.28-2.18-1.36-3.12-.27-.89,1.03.14,2.07.6,3.11,3.9,8.86,9.01,17.07,13.55,25.59,4.31,8.07,9.6,13.43,19.57,10.64Zm376.84,59.04c6.21,0,7.31-.43,6.74-2.29-2.26-7.42-3.3-15.71-11.06-19.93-6.42-3.49-13.11-6.47-19.72-9.6-1.89-.9-3.78-1.81-5.85.14-1.93,1.82-1.95,4.15-1.18,5.93,1.58,3.67,2.54,7.55,5.21,10.89,2.9,3.63,6.55,7.18,7.51,11.91,1.11,5.46,4.39,5.59,8.64,4.74,3.66-.74,7.34-1.35,9.71-1.78Zm94.72-69.4c3.71,3.31,5.84,6.98,5.92,11.81.03,1.86.8,3.74,2.09,5.35,2.07,2.58,3.51,5.35,4.1,8.82.94,5.53,5.65,7.97,10.94,6.47,1.03-.29,2.17-.4,1.31-1.77-3.68-5.8-.92-10.97,1.35-16.25.36-.84,2.59-2.11-.03-2.9-5.33-1.59-7.85-5.58-10.17-10.32-2.67-5.44-7.17-5.6-15.51-1.2Zm-194.93-2.69c2.86-.65,3.61-3.25,4.54-5.43,1.11-2.58-1.63-2.45-2.86-2.99-12.95-5.68-26.04-11.02-38.87-16.94-4.08-1.89-5.93-1.01-7.73,2.64-2.13,4.31,1.54,4.67,3.75,5.6,9.69,4.04,19.7,7.24,29.13,11.97,3.84,1.93,8.01,3.41,12.03,5.15Zm204.18-240.92c1.81,1.72,3.56,1.14,5.15,1.18,7.64.17,15.28.21,22.92.35,2.67.05,5.74.54,6.22-3.14.43-3.33,1.49-7.16-2.65-9.24-8.85-4.44-17.85-4.11-26.89-.6-1.22.47-2.82,1.19-2.03,2.81,1.87,3.82-.7,6.08-2.72,8.63Zm-212.33,209.07c-4.66-.58-8.33,3.27-12.55,5.87-.91.56-2.24.7-1.72,2.18.35.99.87,1.62,2.18,2.13,7.99,3.1,15.89,6.44,23.69,9.97,1.63.74,3.64,1.78,4.18.15,1.35-4.08,4.71-7.28,4.94-11.77,0-.1-.21-.25-.35-.31-6.47-2.72-11.72-8.37-20.37-8.22Zm-53.68,6.03c3.51,1.4,6.94,2.76,10.36,4.14.29.12.78.5.79.48,1.69-2.37,3.47-4.7,4.97-7.19,1.6-2.66,3.77-2.76,6.4-2.07,1.39.37,2.94,2.72,4.08.82.93-1.56-.88-3.44-2.04-4.72-2.17-2.4-5.11-2.75-8.18-2.16-6.75,1.3-12.05,4.86-16.39,10.7Zm-211.83,17.53c.11,5.07,3.01,6.94,5.47,8.94,2.85,2.31,6.17,4.47,7.46,7.82,2.2,5.73,6.63,4.69,10.91,4.67.82,0,1.75,0,2.06-.95.29-.9-.3-1.57-.96-2.1-7.82-6.28-15.61-12.61-24.94-18.39Zm65.21-170.69c-1.53-3.8-3.53-7.01-6.6-9.4-3.71-2.9-9.81-.64-10.8,3.92-.23,1.05-.16,2.28,1.02,2.43,5.45.7,10.48,3.78,16.38,3.06Zm426.09,109.6c-1.24-1.73-2.76-1.2-4.15-1.38-6.47-.86-12.91-1.76-18.77-4.99-1.09-.6-1.53-2.68-3.14-1.86-1.65.85-.65,2.7-.81,4.08-.35,3,2,3.97,4.2,4.64,7.59,2.32,15.04-1.3,22.67-.49Zm-119.05-23.36c5.32,3.23,10.2,1.87,15.1-.01,1.96-.75,2.08-1.66,1.33-3.73-2.14-5.92-2.15-6.09-7.08-2.78-3.07,2.06-6.06,4.22-9.35,6.52Zm8.57-38.34c-3.72-3.09-5.69-7.04-8.67-11.2-1.31,3.83.77,7.93-2.8,10.18-2.2,1.38-2.34,2.69-.57,4.71,1.65,1.89,2.94,2.87,5.25.96,2.01-1.66,4.31-2.97,6.8-4.64Zm-75.22,64.24c.02-1.01.16-2.03-1.46-1.87-1.38.14-7.08,5.75-7.08,7.23,0,1.19.89,1.57,1.89,1.64,2.96.22,6.65-3.69,6.65-7.01Zm-64.62,33.15c1.06,1.97,1.94,3.85,3.05,5.58.72,1.11.9,3.15,3.42,1.51,1.97-1.29,2.11-1.89,1.32-4.07-1.56-4.29-4.78-2.82-7.79-3.01Zm29.31-3.22c-1.51-2.26-2.65-4.73-4.36-3.41-2.96,2.29-7.74,2.57-9.58,7.34,4.94-1.52,8.7-3.89,13.95-3.93Zm78.75-97.12c1.72.34,3.31.72,4.38-.96.15-.24-.2-1.17-.41-1.2-1.77-.26-3.02.55-3.97,2.16Z"/><path class="g" d="m916.77,478.87c-1.58-1.84-.66-3.94-.65-5.95,3,1.68,2.1,3.79.65,5.95Z"/><path class="g" d="m916.12,499.83c0-1.35-.91-2.86.65-3.95,1.6,1.61,1.87,3.01-.65,3.95Z"/><path class="i" d="m577.41,779.12c1.32-1.7,2.19-1.09,2.86.55-1.02.16-2.13.8-2.86-.55Z"/><path class="e" d="m610.09,317.08c3.44-.01,6.89-.27,10.26.68.32.87,1.01,1.04,1.83.96,6.09,12.78,16.87,20.09,29.4,25.45,8.83,3.77,17.92,6.74,27.8,9.31-3.77,2.67-7.74,3.92-11.55,5.4-23.88,9.3-47.35,19.48-69.65,32.19-2.26,1.29-4.66,2.47-6.26,4.7-1.25,1.73-2.74,1.22-4.43.57-6.25-2.4-12.09-2.48-17.7,2.18-2.45,2.04-6.04,2.64-8.95,4.21-5.2,2.8-6.95,13.37-2.42,16.83,3.15,2.4,1.19,3.5-.48,4-2.94.89-4.86,2.69-6.65,4.93-1.16,1.45-2.85,1.76-4.54,1.3-2.13-.58-1.23-2.42-1.26-3.79-.11-5.16-.08-5.16-5.52-8.41,1.9-2.3,6.34-3.34,5.31-7.02-1.06-3.76-5.28-3.25-8.49-3.79-1.61-.27-3.18-.79-4.79-.97-5.4-.59-9.84.89-13.71,5.12-6.1,6.68-12.49,13.01-10.9,23.21.49,3.17-1.31,4.77-3.86,6.13-4.09,2.19-7.56,5.07-7.11,10.31.42,4.82,3.65,7.48,7.84,9.38,2.68,1.22,5.4,2.6,7.66,4.45,4,3.28,7.68,2.85,11.61.09,1.78-1.25,3.78-2.02,6.35-1.36-4.17,3.2-7.73,6.6-9.21,11.78-1.13,3.96-4.36,6.63-7.35,9.25-3.17,2.78-5.41,6.2-7.52,9.74-.68,1.15-1.07,2.46-.14,3.73.9,1.23,2.24,1.62,3.55,1.17,5.54-1.88,11.37-3.15,15.99-7.11,2.03-1.74,3.93-2.45,6.96-1.98,10.61,1.64,19.45-2.69,27.32-9.46,5.18-4.45,10.5-8.71,16.18-12.51,2.48-1.66,4.85-1.8,7.91-1.37,6.53.92,13.26,1.6,19.58-1.49,1.18-.58,2.3-1.35,3.68-.3,13.71,10.52,27.88,6.07,41.91,1.02,6.99-2.51,13.7-5.79,21.41-7.6-.21,5.15.5,9.72,3.5,13.84,1.37,1.88.64,4.44.07,6.77-1.43,5.86.96,9.68,6.95,10.72,7.27,1.26,14.62.04,21.93.12,2.56.03,4.23.4,6.09,2.92,5.38,7.26,13.05,10.45,22.14,11.6,12.99,1.65,25.57-1.26,38.34-1.95,6.3-.34,12.64-.06,18.98-.06.5,1.74-1.1,1.89-1.89,2.44-10.63,7.42-19.81,16.29-25.92,27.81-6.91,13.02-17.82,20.59-31.56,24.66-4.81,1.43-9.22,3.59-13.48,6.22-5.84,3.61-10.32,2.3-13.5-3.71-5-9.44-10.09-11.12-19.67-6.64-1.92.9-3.99,1.48-6.04,2.05-1.09.3-2.5,0-2.64,1.62-.12,1.4.97,2.09,2.08,2.5,5.26,1.92,7.87,5.38,8.04,11.22.09,2.97,1.9,5.87,3.97,8.33.94,1.12,1.75,2.47,2.21,3.85,2.79,8.49,5.99,11.34,14.5,11.5,3.74.07,6.37,1.1,9.09,3.79,5.96,5.91,17.95,5.9,26.23.28,6.86-4.66,14.19-8.14,22.14-10.54,3.42-1.03,5.9-.4,7.86,2.26,2.05,2.78-.81,4.25-2.12,5.86-6,7.35-12.04,14.67-18.31,21.78-6.02,6.82-10.87,14.28-14.22,22.74-3.02,7.62-7.47,14.03-14.97,18.02-3.08,1.64-5.82,4.01-7.87,6.85-9.94,13.78-24.23,19.41-40.27,21.92-2.92.46-5.97.84-8.65,1.98-9.69,4.13-19.8,3.29-29.87,2.96-2.47-.08-4.96-.41-7.19-1.65-5.59-3.11-8.75-8.46-7.61-12.82,1.44-5.51,7.77-9.97,13.85-10.48,9.92-.85,18.37,4.08,27.45,6.5,8.25,2.19,16.22,3.53,24.4-.46,5.6-2.73,8-7.53,4.88-13-5.18-9.07-13.47-13.28-23.78-14.14-8.98-.75-18.32.24-26.59-4.55-3.12-1.81-6.24-3.7-9.08-5.91-8.63-6.7-18.86-8.24-29.21-9.27-2.35-.23-2.72-1.07-3.31-3.16-2.1-7.49-3.98-15.37-10.7-20.27-7.35-5.35-15.69-9.09-24.38-11.52-7.48-2.09-11.87,4.53-9.07,12.99,1.58,4.8,4.15,9.09,7.36,12.95,2.38,2.87,3.64,6.27,5.29,9.51,1.55,3.05.4,3.88-2.54,4.69-9.62,2.65-19.6,4.08-28.67,8.63-14.13,7.08-14.69,14.14-2.2,23.84,6.49,5.04,14,8.6,20.01,14.28,1.32,1.25,2.84,2.3,4.13,3.58,5.4,5.4,5.77,11.36.17,16.44-7.68,6.96-17.08,10.94-27.23,12.74-11.51,2.03-23.17,1.04-34.78,1.16-4.97.05-9.94-.21-14.89.84-2.18.46-4.16-.07-6.31-1.73-7.79-6.01-16.87-8.86-26.73-9.14-1.45-.04-3.04.38-4.37-1.14,2.02-1.3,3.99-2.6,5.99-3.86,7.06-4.46,10.25-11.04,10.27-19.21,0-2.42.34-4.16,3.06-4.74,13.91-2.96,18.09-13.68,18.77-25.76.24-4.22.36-6.77,5.33-8.52,12.58-4.44,15.86-15.54,16.69-27.4.33-4.81.72-8.32,5.34-11.49,7.74-5.32,11.28-17.99,8.89-26.1-1.56-5.27-5.71-7.83-9.97-10.33-1.94-1.13-4.06-1.94-6.1-2.9.11-.4.23-.81.34-1.21,4.47.76,9.07,1.08,13.38,2.37,12.04,3.61,24.39,3.99,36.76,4.07,5.16.04,9.3-2.7,11.39-7.44,2.11-4.8,4.89-8.92,8.74-12.45,2.22-2.04,2.72-4.34,1.56-7.58-2.58-7.2-3.38-14.7-.67-22.13,1.47-4.02-.32-5.19-3.92-5.18-2.81,0-5.69.36-8.27-1.1-4.14-2.35-7.75-2.67-11.64.99-2.41,2.28-5.89,1.24-8.99.41-6.32-1.67-12.63-3.19-17.45,3.43-.71.97-2.01,1.73-3.63-.07-3.24-3.59-7.31-6.26-11.94-7.94-6.02-2.18-7.04-7.53-7.54-12.82-.37-3.87-1.55-7.17-4.2-9.86-2.64-2.68-1.98-4.48.97-6.23,2.54-1.5,5.23-2.85,5.17-6.62-.05-2.83-.66-4.51-3.9-4.19-4.95.48-9.39-.46-13.38-3.87-2.99-2.55-6.13-1.68-7.77,1.9-2.04,4.43-4.78,4.5-8.84,2.76-8.04-3.43-10.54-2.07-12.64,6.67-.67,2.8-1.33,3.67-4.01,1.98-1.65-1.04-3.59-1.65-5.43-2.37-7.1-2.79-9.01-5.79-6.47-12.73,2.92-7.94,1.22-13.92-5.02-19.49-6.66-5.95-12.06-13.09-17.01-20.56-3.59-5.42-7.55-10.58-12.47-14.91-3.82-3.36-8.17-5.17-13.3-4.25-3.79.68-5.28,3.84-2.6,6.49,4.93,4.89,6.64,10.45,5.85,17.14-.28,2.39,1.32,3.91,3.16,5.23,3.89,2.78,6.73,6.25,8.01,11.06,1.11,4.14,4.26,7.06,7.19,10.05,2.21,2.25,4.73,4.24,6.3,7.06,1.65,2.96,2.41,5.06-2.61,5.01-4.23-.05-7.98,6.88-6.45,11.86,1.07,3.48.41,5.25-3.19,6.02-4.21.91-7.52,3.45-10.52,6.41-2.83,2.8-5.53,3.19-8.33-.09-2.12-2.49-4.4-4.83-7.35-8.04,6.8-.34,12.65-.21,17.94-3.33,6.29-3.7,7.95-9.76,3.78-15.79-2.82-4.09-5.8-8.07-9.5-11.44-.61-.56-1.15-1.21-1.76-1.77-9.4-8.45-15.69-18.35-16.7-31.48-.65-8.38-9-14.21-16.4-10.93-10.65,4.71-18.34-.89-26.73-5.11-2.57-1.29-1.94-4.35-3.44-6.38-4.95-6.72-11.84-9.86-19.65-10.87-3.37-.43-3.7-1.74-3.54-4.39.41-6.87,1.69-13.53,5.41-19.4,3.58-5.66,3.32-11.26.67-17.06-.55-1.19-1.3-2.28-1.17-3.73.21-2.21-.99-5.14,3.6-3.7,2.31.72,5.22-.48,6.83-2.99.74-1.17,1.33-2.58,2.91-.96,3.57,3.65,7.26,1.4,10.08-.57,4.86-3.4,9.96-5.92,15.59-7.6,5.18-1.55,9.64-4.43,13.63-8.08,1.96-1.8,4.01-3.5,6.06-5.19,5.96-4.92,12.37-5.67,19.47-2.52,5.42,2.4,6.78,1.38,6.71-4.63-.04-3.57.55-6.85,2.79-9.73,2.76-3.56,3.13-8.04,3.85-12.15.92-5.24,5.49-5.75,8.59-8.1,1.35-1.03,1.83.54,1.81,1.85-.03,2.5.05,4.99-.03,7.49-.1,3.05-.45,6.44,3.44,7.24,3.98.82,8.84-2.07,9.28-5.66,1.1-8.95.07-17.91-2.1-26.55-.81-3.24-4.46-1.65-7.2-.8-8.42,2.63-11.8,3.15-18.11-3.53-1.77-1.87-1.89-3.26.23-4.85,6.02-4.52,9.22-10.76,10.89-17.96,1.7-7.33,6.04-11.71,13.71-13.13,4.95-.91,9.77-2.75,14.53-4.48,7.23-2.63,11.56-8.32,14.3-15.14,2.39-5.94,5.52-10.13,12.61-10.84,4.82-.49,8.93-3.24,11.14-8.05,3.52-7.63,10.09-11.1,17.88-12.4,10.74-1.79,21.51-3.53,32.45-3.42,5.15.05,9.57,1.82,12.07,6.53,5.98,11.28,16.84,15.09,27.95,18.22,4.3,1.21,8.31-.75,10.12-5.22,1.27-3.14,2.86-5.51,6.55-4.34,3.35,1.06,4.07,4.03,4.08,7.2,0,.83.14,1.75-.15,2.48-.76,1.9-1.8,3.91.22,5.44,2.15,1.63,4.29.28,6.51-.5,7.65-2.69,10.24-9.05,12.37-16,2.67-8.69,2.77-8.54,11.83-6.97,7.26,1.25,13.67-1.38,19.78-4.99,6.54-3.86,12.77-8.13,21-8.09,6.33.03,12.06,1.14,17.56,4.27,2.91,1.66,6.2,2.74,6.83-2.58.25-2.14,2.31-2.41,3.76-2.71,7.58-1.59,12.24-6.05,15.28-13.18,2.88-6.74,8.4-8.64,17.06-6.28,5.57,1.52,11.31,2.24,16.78,4.27,5.25,1.94,11.36-1.12,14.74-6.59,3.95-6.38,8.13-12.52,15.52-15.54,7.14-2.92,17.1,1.42,19.66,8.72.38,1.09.17,2.03-.5,2.79-2.99,3.36-1.5,6.26.66,9.31,4.44,6.26,10.76,10.76,15.33,16.91,3.16,4.26,3.01,4.93-2.04,6.84-7.27,2.76-14.5,1.62-21.89.48-18.71-2.9-37.51-4.9-55.63,2.87-5.52,2.37-11.59,4.88-12,12.44-.31,5.74,2.57,10.89,7.91,13.01,3.78,1.5,7.86,2.93,11.85,3.07,15.52.55,31.13,1.65,46.22-3.77,15.94-5.73,31.54-3.35,46.95,2.39,7.81,2.91,15.61,5.89,23.51,8.54,3.79,1.27,4.44,4.89,5.96,7.51,11.94,20.65,21.89,42.29,29.32,64.94,5.76,17.54,9.36,35.64,11.35,54.08,1.05,9.73.32,19.55,2,29.21.55,3.15-.71,4.28-4.02,4.41-27.95,1.14-55-3.13-80.48-14.69-12.75-5.78-24.66-13.42-36.98-20.17-2.02-1.11-2.23-2.2-.57-3.77,13.65-12.91,28.22-23.96,48.34-23.53,7.97.17,15.72-.77,23.1-3.94,4.49-1.93,6.03-5.73,5.39-10.16-.61-4.23-2.68-7.06-7.51-8.56-12.78-3.96-25.66-1.88-38.51-1.86-7.81,0-15.63.74-23.42-.33-1.06-.15-2.59.35-3.01-1.1-.39-1.34,1.04-1.97,1.79-2.75,5.26-5.56,10.83-10.87,14.98-17.37,2.04-3.2,4.07-6.37,3.99-10.54-.18-8.28-4.25-12.68-12.68-13.42-7.18-.63-13.99.7-20.19,4.19-10.73,6.04-22.02,9.12-34.34,7.72-4.73-.54-9.43-1.3-14.15-1.94-10.76-1.47-21.42-.93-32.18.65-6.95,1.02-13.63,2.45-19.98,5.38-3.5,1.62-6.68,3.69-9,6.92-2.51,3.49-3.22,6.97-1.46,11.14,1.88,4.45,2.85,9.03,1.52,14.06-1.23,4.64-4.06,7.38-8.34,8.23-5.79,1.14-11.5,2.6-17.56,2.67-9.72.11-19.46,1.01-28.76,4.27-4.96,1.73-9.19,4.67-12.5,8.74-2.2,2.71-4.76,5.82-2.88,9.43,1.92,3.68,5.52,5.47,9.86,5.61,4.31.14,8.62.54,12.93.82,1.46,1.5,3.01,1.33,4.61.25Zm-106.26-49.88c3.76.15,7.29-.42,10.57-2.41,2.44-1.48,3.38-3.56,2.95-6.32-.43-2.72-2.41-3.93-4.8-4.4-8.36-1.65-16.56-1.67-24.74,1.5-3.68,1.43-7.79,2.51-11.74-.57-2.54-1.98-3.22-2.84.13-4.52,5.94-2.97,8.44-8.11,8.3-14.64-.04-2.16,0-4.34-.23-6.49-.47-4.38,1.2-6.79,5.67-7.74,5.33-1.13,10.55-2.72,14.49-6.96,3.36-3.61,4.12-7.59,1.63-11.8-2.95-4.97-8.32-5.1-13.17-5.36-3.78-.21-7.1,2.62-7.9,5.9-2.05,8.38-7.97,12.07-15.13,15.15-8.52,3.67-12.13,10.68-12.46,19.8-.2,5.56,1.05,10.9,2.36,16.12.99,3.96-.28,6.29-2.91,8.58-2.65,2.3-5.05,4.74-6.46,8.11-3.9,9.27-8.47,17.96-19.39,20.74-1.04.27-2.12,1.12-2.78,2-1.72,2.31-3.12,3.83-5.29.32-1.07-1.74-3.37-2.25-4.79-.72-3.22,3.45-6.65,2.54-10.48,1.6-4.43-1.08-7.21,1.54-7.15,6.16.08,5.98,3.95,9.94,9.95,9.63,4.21-.21,7.79.15,10.28,4.16,1.73,2.79,4.45,2.37,7.03,1.23,1.95-.87,3.89-1.77,5.71-2.88,3.01-1.84,5.66-2.05,8.66.33,3.75,2.97,7.54,2.41,10.91-1.01,1.06-1.08,2.37-1.47,3.89-1.84,10.79-2.65,13.1-5.82,12.56-16.59-.34-6.65,1.96-8.21,8.29-5.65.76.31,1.57.5,2.36.74,4.69,1.38,7.17-.58,7.4-5.38.2-4.01-2.27-5.93-5.02-7.97-1.91-1.42-6-1.37-5.51-4.08.45-2.5,4.06-3.56,6.64-4.65,3.79-1.59,7.76-1.65,11.78-1.09,2.8.39,5.61.68,8.41,1.02Z"/><path class="h" d="m373.31,71.36c16.44-2.57,29.49-12.73,43.97-19.68,7.44-3.57,15.32-5.6,23.53-5.62,8.42-.02,16.84-.61,25.27.83,8.87,1.52,16.73-2.29,24.43-5.99,6.21-2.98,12.49-3.8,19.14-1.88,2.14.62,4.03,1.63,5.53,3.22,2.59,2.75,1.71,6.24-1.66,7.87-3.45,1.68-7.29,1.65-10.83,2.89-4.71,1.64-5.6,5.16-2.67,9.11,4.15,5.59,9.73,5.81,15.59,4.35,9.48-2.37,18.89-5.04,28.28-7.73,5.94-1.7,12.17-1.86,18.01-4.35,7.77-3.31,10.43-7.25,8-15.23-1.19-3.91.42-5.22,3.47-7.21,7.51-4.89,15.41-2.88,23.02-1.77,12.73,1.86,25.46,4.12,37.93,7.25,14.31,3.6,28.3,8.4,42.17,13.56,16.47,6.12,31.57,14.74,46.23,24.16,15.34,9.86,29.42,21.44,42.96,33.66,2.14,1.93,2.31,3.17-.81,4.11-9.03,2.71-14.85,9.21-19.71,16.87-3.94,6.2-6.67,6.98-14.07,5.38-6.69-1.45-13.14-3.76-20.09-4.41-8.02-.74-12.94,2.97-15.36,9.67-2.34,6.47-7.13,8.8-12.91,10.4-1.95.54-4.34,1.3-4.76,3.07-1.17,4.86-4.16,2.81-6.16,1.63-7.49-4.44-15.3-4.39-23.42-2.63-4.24.92-7.89,3.14-11.4,5.4-7.9,5.08-16.17,8.09-25.69,6.62-5.58-.87-9.21,1.16-10.6,6.94-.64,2.67-2.07,5.12-2.52,7.91-.45,2.77-2.27,4.83-4.52,6.34-1.29.87-2.75,2.34-4.42,1.58-1.64-.75-.74-2.63-.84-4-.54-7.72-6.98-12.41-13.3-9.82-2.3.94-3.36,2.68-4.1,4.69-1.49,4.06-4.53,5.05-8.25,4.12-10.44-2.59-19.55-7.08-24.78-17.32-3.26-6.39-10-5.77-15.6-6.28-11.17-1.02-22.33.81-33.16,3.18-7.98,1.75-15.36,5.86-18.95,14.18-1.83,4.24-5.3,6.26-9.56,6.41-6.28.21-9.65,4.16-12.63,8.79-1.96,3.04-3.75,6.2-5.54,9.34-3.08,5.41-8.13,7.62-13.87,8.91-5.55,1.25-10.94,3.03-16.1,5.44-5.75,2.68-8.39,8.09-9.73,13.59-1.59,6.58-4.94,11.61-9.6,16.17-3.74,3.66-3.63,6.36.05,10.03,6.17,6.15,13.03,9.22,21.01,4.55,2.62-1.53,3.63-1.06,4.41,2.35,1.01,4.36.12,8.84,1.65,13.14.78,2.2.4,4.9-.86,7.18-1.06,1.91-2.72,3.14-4.8,2.48-2.22-.71-1.27-2.88-.86-4.25,1-3.27.93-6.35-.17-9.57-1.28-3.75-4.66-4-6.77-2.59-4.85,3.25-10.2,6.03-10.93,13.42-.73,7.35-6.96,13.49-5.34,21.29-1.57,1.28-2.59.25-3.49-.18-9.5-4.62-17.19-.9-24.3,5.27-6.36,5.52-12.93,10.56-21.33,12.69-3.84.97-7.19,3.04-10.35,5.53-4.39,3.46-6.65,2.91-9.21-1.81-.71-1.3-.88-3.08-2.99-2.42-1.54.49-2.1,1.6-2.38,3.32-1.08,6.56-2.36,7.06-8.28,3.31-1.74-1.1-3.67-1.5-5.08-.53-1.61,1.1.42,2.55.61,3.87.92,6.15,2.41,12.11,4.69,17.92.69,1.77-.4,3.67-1.45,5.14-5.54,7.72-7.01,16.63-7.67,25.65-2.22,0-4.42.19-6.58-.04-6.55-.68-11.28-3.35-13.45-10.34-1.24-4-4.44-7.05-8.88-8.75-5.26-2.02-8.84.24-11.29,4.05-2.88,4.48-6.06,4.56-10.52,3.04-9.12-3.1-16.7-8.48-22.42-15.96-4.03-5.28-5.05-12.13-6.46-18.61-1.76-8.09-3.38-16.22-5.35-24.25-3.04-12.39-11-21.41-20.81-28.91-8.22-6.28-13.41-13.77-11.85-24.69.35-2.42.07-4.86-.89-7.22-1.08-2.66-.58-5.02.79-7.7,6.67-13.1,14.34-25.59,22.23-37.95,6.32-9.9,13.02-19.58,19.9-29.1,15.62-21.59,33.09-41.67,52.76-59.58,19.78-18,40.96-34.38,63.82-48.42,2.23-1.37,3.82-1.64,6.24-.09,5.48,3.51,12.2,3.2,18.22,5.12,2.82.93,5.63,1.11,8.43-.1Zm-25.05,163.5c-9.3.03-11.26,1.74-12.55,11.18-.18,1.3-.74,2.25-1.81,2.75-3.75,1.76-2.86,4.66-1.22,6.97,1.79,2.52,2.05,5.06,1.91,7.9-.16,3.32-.64,6.71-.16,9.96.66,4.49-.68,6.99-5.27,7.25-2.59.14-4.29,1.72-4.74,3.76-1.02,4.58-4.13,6.79-8.05,8.23-2.53.93-3.54,2.84-2.63,5,1.45,3.44-.48,4.27-2.93,5.58-2.52,1.34-4.65,3.43-4.08,6.78.5,2.91,3.25,3.51,5.27,3.52,6.74,0,12.62,3.01,18.85,4.76,5.24,1.47,8.94-.71,9.82-6.03.44-2.64,2.23-3.39,4.32-4.08,7.04-2.33,7.69-3.39,5.01-10.44-2.86-7.51-3.23-14.95-.18-22.4,1.61-3.93,2.44-7.76.23-11.65-1.34-2.37-1.28-3.19,1.83-4.15,6.46-2,6.89-3.87,4.03-10.31-.77-1.74-1.49-3.3-.78-5.57,2.16-6.93.4-9.02-6.86-9Zm51.3-121.56c.02-7.47-4.39-10.53-11.52-8.6-5.45,1.48-9.84,4.82-14.62,7.41-7.27,3.95-14.17,8.79-18.24,16.16-2.08,3.76-4.82,5.67-8.45,6.65-5.85,1.58-10.18,4.87-13.27,10.04-3.35,5.61-2.46,11.05,2.55,15.18,3.13,2.58,7.48,2.42,10.65,4.84,4.36,3.33,9.06,1.67,12.94-.14,5.43-2.54,10.23-6.43,15.3-9.75,7.11-4.66,11.31-12.83,19.89-15.9,2.83-1.01,3.86-4.44,2.01-7.66-1.7-2.98-1.57-5.9,0-8.9,1.53-2.91,2.95-5.89,2.78-9.32Zm-88.85,146.73c-6.67-.74-7.12,3.84-7.91,7.15-1.41,5.95-3.1,11.28-9.55,13.61-2.58.93-3.64,3.17-2.3,5.63,1.1,2.03,2.35,4.46,5.73,2.71,1.25-.65,3.09-.46,4.8.11,5.72,1.9,10.44-.28,13.12-5.61,1.85-3.67,3.64-7.44,6.96-10.05,3.29-2.59,5.11-5.86,5.79-9.97.63-3.81-.98-5.95-4.52-4.44-4.55,1.93-8.78,2.16-12.12.86Z"/><path class="i" d="m376.76,704.82c-33.88.5-65.63-3.25-96.24-13.38-17.97-5.95-36.3-10.1-54.59-14.56-22.81-5.56-45.69-10.81-68.52-16.28-22.69-5.44-44.65-13.45-65.95-23.05-28.11-12.67-52.76-29.64-68.43-57.22-5.74-10.1-9.96-20.74-13.47-31.94-4.56-14.58-4.34-29.3-3.07-43.79,1.51-17.2,9.38-32.51,19.75-46.42,11.24-15.09,25.57-26.56,41.43-36.27,14.93-9.14,30.86-16.19,47.29-22.17,3.17-1.15,4.76-2.09,4.2,3.17-.66,6.2-2.06,12.49-1.3,18.82.3,2.52-.7,3.85-2.99,4.95-13.62,6.56-25.6,15.39-35.88,26.5-11.64,12.58-17.72,27.57-17.93,44.62-.24,19.95,8.69,35.88,23.42,48.7,14.37,12.52,32.04,17.98,50.09,22.23,16.31,3.84,32.99,4.77,49.71,4.97,16.81.19,33.61-.47,50.41-.62,19.96-.17,39.92.63,59.89.56,17.02-.06,31.96-6.33,45.38-16.62,8.67-6.65,15.63-14.95,22.71-23.11,5.73-6.6,11.82-12.77,19.45-17,11.65-6.45,20.54-15.48,28.08-26.37,11.21-16.19,30.33-17.42,44.19-3.28,5.14,5.25,10.27,10.34,17.66,12.44,2.09.59,4.43,1.48,4.47,4.62.03,2.96-.88,5.28-3.4,6.75-6.07,3.55-12.56,4.74-19.52,3.33-6.4-1.3-12.16-4.15-17.93-7.02-1.98-.99-4.23-3.01-6.13-.19-1.78,2.65.58,3.81,2.43,4.97,2.12,1.33,1.32,2.3-.41,3.05-4.41,1.92-7.63,5.26-10.61,8.89-.87,1.05-1.75,1.95-3.31,1.88-1.7-.07-2.97.73-3.17,2.5-.24,2.13,1.08,3.51,2.87,4.23,4.42,1.78,8.85,3.63,13.31,5.19,15.52,5.42,30.2,12.79,45.44,18.81,9.59,3.79,19.05,7.85,28.37,12.22,7.09,3.33,8.65,7.07,6.4,14.56-3.98,13.23-13.54,17.91-26.59,12.01-8.98-4.06-18.59-6.36-27.43-10.71-3.22-1.59-6.29-3.64-9.98-3.97-1.07-.1-2.49-.47-3.16.78-.81,1.5.44,2.5,1.31,3.44.54.58,1.35.95,2.09,1.3,13.92,6.51,27.78,13.41,42.89,16.56,5.89,1.23,6.71,3.54,6.54,8.75-.37,11.38-5.31,18.87-15.55,22.41-6.14,2.12-11.25-1.22-16.63-2.91-6.33-1.99-12.53-4.4-18.77-6.67-2.12-.77-4.07-.88-4.88,1.67-.71,2.26.85,3.4,2.71,4.05,9.36,3.25,18.71,6.5,28.11,9.64,1.23.41,2.83.05,2.86,1.96.1,6.31.44,12.72-3.58,18.17-3.66,4.97-8.59,7.85-14.85,7.9-8.49.07-16.97-.04-25.46-.03-1.77,0-4.02-.45-4.01,2.37,0,2.65,1.55,3.7,4.22,3.68,5.82-.04,11.65.25,17.47.16,2.98-.04,4.38.45,4.42,4.06.09,7.66-4.39,12.07-10.23,15.29-7.54,4.16-15.81,6.17-24.31,7.92-14.24,2.94-28.5,3.86-41.29,3.52Zm28.65-141.54c.19,1.48-.33,3.22,1.86,3.59,2.16.37,3.66-.43,4.08-2.6.68-3.5,1.82-6.73,4.44-9.29,1.46-1.42,2.31-3.16.37-4.68-1.65-1.29-3.53-.87-4.94.65-3.25,3.5-5.42,7.54-5.8,12.33Zm-2.82,108.71c0-1.49,0-2.48,0-3.47,0-1.52.02-3.2-1.93-3.48-2.13-.3-3.66,1.09-3.95,2.94-.64,4.04-.82,8.15-1.21,12.24-.21,2.19,1.2,2.98,2.98,3.11,1.67.12,3.07-.83,3.03-2.56-.08-3.16,1.74-6.07,1.08-8.77Zm-4.01-39.13c0-.36-.16.5.03,1.28.46,1.88.98,4.38,3.14,4.4,2.7.02,2.99-2.38,2.85-4.71-.14-2.12-.19-4.2,1.21-6.12,1.09-1.49.89-3.24-.76-4.33-1.65-1.1-3.27-.5-4.36.94-1.63,2.14-2.25,4.68-2.11,8.56Zm11.98-41.05c.26-2.01-.23-3.02-1.33-3.65-1.17-.67-2.34-.39-3.07.64-2.09,2.95-4.02,6.02-4.57,9.7-.22,1.46.31,2.7,1.8,3.13,1.25.36,3.07.81,3.66-.46,1.5-3.23,2.54-6.68,3.51-9.36Z"/><path class="g" d="m663.71,407.85c-17.33,1.25-34.07,5.11-50.23,11.45-5.82,2.28-11.74,2.79-16.87-.96-7.18-5.25-6.19-15.71,2.16-20.89,7.47-4.63,15.41-8.53,23.29-12.44,24.24-12.03,49.85-20.87,74.5-31.96,7.15-3.22,15.13-4.53,23.07-5.13,1.48-.11,3.61.75,3.54-2.08-.06-2.46-1.57-2.85-3.66-2.96-6.46-.34-13.04.13-18.86,2.48-8.96,3.61-17.38,3.5-26.38.58-10.82-3.51-21.75-6.67-31.44-12.83-4.71-3-9.07-6.49-12.06-11.45-3.19-5.29-3.36-8.89-.21-12.7,3.69-4.46,8.13-2.68,11.88-.8,9.1,4.56,18.59,7.7,28.41,10.24,7.75,2,15.66,1.8,23.43,2.3,11.04.72,22.14,1.14,33.23,1.43,16.43.43,32.09,4.19,46.46,13.12,19.76,12.28,40.57,22.56,63.56,27.44,15.5,3.29,31.14,5.28,47.1,4.8,14.18-.42,28.07-2.57,41.52-6.64,18.48-5.59,35.79-13.73,49.43-28.05,8.56-8.98,14.26-19.71,16.11-31.85,2.43-15.92-4.94-27.74-18.29-35.82-15.41-9.33-32.42-13.99-50.19-16.31-11.9-1.56-23.77-2.83-35.79-3.11-3.7-.08-7.49-.83-11.27-.75-1.35.03-1.96-.45-2.55-1.71-3.1-6.67-6.54-13.18-9.49-19.91-2.25-5.13-1.99-5.39,3.39-5.13,12.01.58,23.99,1.57,35.98,2.61,13.69,1.19,27.24,3.11,40.59,6.16,20.9,4.77,41.49,10.49,60.51,20.86,13.89,7.57,26.53,16.59,35.97,29.47,6.88,9.38,10.89,20.22,13.07,31.46,6.01,30.93-1.7,59.09-18.77,84.98-11.07,16.79-26.42,28.8-43.98,38.19-19.4,10.38-39.95,17.86-61.01,23.95-4.75,1.37-9.49,2.8-14.56,3.38-4.45.51-8.74,2.92-13.31,4.04-20.22,4.99-40.22,10.82-59.86,17.76-9.62,3.4-18.71,8.19-28.57,11.09-7.92,2.33-16.09,3.16-24.08,3.38-15.18.42-30.3,1.58-45.44,2.46-4.97.29-9.98.05-14.97-.12-8.13-.28-14.68-5.47-17.87-13.36-1.14-2.81,1.35-2.28,2.03-2.47,2.35-.68,4.91-.61,7.27-1.27,1.91-.53,4.46-.9,3.81-4.1-.68-3.34-3.38-1.95-4.79-1.58-8.4,2.21-16.88,2.6-25.46,1.75-7.73-.76-13.55-4.42-16.97-11.52-2.33-4.84-.36-9.14,4.71-10.6.47-.13.86-.58,1.33-.64,2.99-.41,7-.89,5.85-4.71-.99-3.27-5.19-1.8-7.69-1.06-12.98,3.82-25.71,8.48-38.62,12.49-7.78,2.42-15.71,6.2-24.48,3.18-4.04-1.39-7.44-3.38-9.99-6.69-4.3-5.58-3.32-8.75,1.7-13.48,9.56-9.02,21.97-11.51,33.59-15.85,10.44-3.9,20.24-9.13,30.08-14.27,1.38-.72,3.08-1.79,2.58-3.84-.59-2.42-2.69-1.98-4.47-1.99-2.66-.01-5.33,0-7.99,0Zm64.34,5.09c-5.36-.21-10.36,1.14-15.3,3.13-2.37.95-1.79,2.65-1.42,4.05.44,1.65,1.62,2.19,3.42,1.08,1.18-.73,2.79-.71,4.14-1.21,4.13-1.53,8.41-.92,12.64-1.14,2.02-.11,3.74-.63,3.72-3.47-.02-3.11-2.1-2.28-3.72-2.42-1.15-.1-2.32-.02-3.49-.02Zm-12.98-37.87c2.42-.59,4.9.26,7.34-.66,1.64-.62,2.38-1.93,2.3-3.29-.07-1.16-.92-2.37-2.66-2.29-5.85.25-11.77-.6-17.46,1.76-1.78.74-3.75,1.03-3.24,3.42.52,2.44,2.74,1.97,4.48,1.86,3.09-.2,6.05-1.59,9.24-.8Zm25.05,78.97c.15-2.67-2.41-4.41-4.69-2.9-3.23,2.13-6.22,4.64-9.29,7-1.64,1.26-1.37,2.98-.55,4.42.82,1.44,2.19,1.83,3.76.69,3.27-2.39,6.6-4.69,9.9-7.03.76-.54.94-1.3.88-2.17Zm10.98,29.81c-1.93.39-4.23-.64-6.45.75-1.29.81-2.82,1.18-2.55,3.1.26,1.88,1.75,1.8,3.22,2.28,3.58,1.18,6.92-.63,10.43-.26,2.14.22,2.31-1.81,2.43-3.56.15-2.2-1.15-2.38-2.81-2.32-1.32.05-2.65,0-4.27,0Z"/><path class="f" d="m355.75,531.92c-12.11,15.9-26.78,27.63-45.51,33.51-5.35,1.68-11.22,2.14-16.88,2.3-11.81.33-23.66-.36-35.44.27-6.11.33-10.21-2.2-14.38-5.77-15.92-13.62-32.89-25.72-51.54-35.35-7.84-4.05-16.42-5.76-25.04-6.99-8.69-1.24-13.37-7.13-17.05-14.03-6.41-12.02-8.73-25.5-12.87-38.32-3.2-9.89-8.51-18.89-11.3-28.96-2.52-9.08-2.21-18.11-1.16-27.27.53-4.56.73-9.16,1.28-13.72,1.2-10.02,2.58-20.03,3.78-30.05.54-4.55.89-9.13,1.22-13.7.98-13.43,1.33-26.96,7.04-39.55,2.62-5.78,6-11.14,9.63-16.28,5.29-7.48,8.78-15.66,11.09-24.45,1.06-4.02-.28-7.88-.91-11.69-1.16-6.97,1.64-12.47,5.48-17.63,1.85-2.49,5.02-1.37,7.5-1.15,3.2.29,4.46,3.42,4.84,5.89.68,4.4,1.69,8.81,1.28,13.37-.86,9.42,3.67,16.4,10.91,21.59,8.89,6.39,16.66,13.5,20.03,24.34,2.49,8.01,4.34,16.16,5.98,24.38,2.67,13.33,6.18,26.27,18.61,34.39,10.53,6.87,22.47,9.94,34.42,12.84,16.21,3.93,32.54,7.39,48.8,11.13,3.37.78,7.31,6.38,7.03,10.07-.35,4.59-2.2,7.84-7.37,8.85-7.36,1.43-14.85,1.53-22.25,2.72-7.97,1.29-17.34,9.21-18.25,18.67-1.65,17.17,5.72,30.42,18.69,40.94,13.96,11.32,26.74,23.7,37.57,38.18,6.49,8.66,13.6,17.07,24.77,21.47Zm-182.08-156.84c.19,1.08.63,2.22.78,3.23.91,6.21,7.09,9.32,8.58,15.14.51,1.97,2.04,3.05,4.06,2.24,2.19-.87,1.92-2.74,1.37-4.62-1.97-6.74-8.49-10.99-9.77-18.15-.31-1.75-2.2-.92-3.42-.87-2.12.1-1.37,1.82-1.6,3.03Zm8.28,56.43c-.11-6.44-4.34-9.8-5.91-14.3-.88-2.53-2.3-4.28-4.92-3.14-2.68,1.17-1.09,3.19-.49,5.23,1.52,5.16,6.48,9.05,5.28,15.26-.42,2.16,1.97,1.43,2.9,1.17,2.66-.73,3.35-2.86,3.14-4.22Zm18.45,61.27c-.54.64-2.19-.68-2.56,1.13-.28,1.35-.27,2.78,1.07,3.55,5.05,2.92,9.1,6.77,11.89,11.95.63,1.18,1.96,1.88,3.41,1.22,1.44-.66,1.59-2.03,1.45-3.39-.46-4.6-10.49-14.27-15.26-14.45Zm45.13-5.02c-.65.67-2.29-.69-2.7,1.01-.3,1.25-.39,2.61.86,3.63,4.03,3.31,7.97,6.73,12.07,9.94,1.37,1.07,3.2,1.18,4.38-.49,1.25-1.76.95-3.65-.91-4.68-1.95-1.08-3.13-2.97-4.9-4.09-2.81-1.79-4.83-4.93-8.81-5.32Z"/><path class="f" d="m579.41,772.7c-14.57-1.75-28.72.53-42.73,4.32-18.21,4.93-36.44,4.89-54.77.5-4.41-1.06-9.02-1.3-13.53-1.92-.58-2.15-1.5-2.46-2.83-.52-4.95-.94-9.94-.47-14.92-.45-14.74.05-29.32-.51-43.67-4.75-9.83-2.91-19.99-4.73-29.7-8.11-6.88-2.4-12.47-6.49-15.74-13.26-2.53-5.23-1.17-8.02,4.35-9.77,10.67-3.37,21.66-4.47,32.76-4.88,15.97-.59,31.52-3.59,46.71-8.45,14.33-4.59,28.93-7.4,44-7.53,9.98-.09,20,.58,29.93-.12,15.83-1.11,30.67-5.35,42.15-17.36,5.89-6.16,5.77-11.77,1.45-19.06-4.66-7.86-12.68-11.25-19.34-16.39-4.22-3.27-8.61-6.29-12.51-9.98-3.04-2.89-2.32-4.94.83-7.07,4.86-3.28,10.2-5.58,15.79-6.94,12.05-2.93,24.14-5.74,36.34-7.95,16.48-2.98,32.1-.68,45.83,9.73,7.51,5.69,15.69,8.28,25.28,8.32,8.16.04,16.77.43,23.69,6.09,2.52,2.07,6.21,4.49,5.02,7.85-1.14,3.22-5.41,3.49-8.83,3.83-8.56.85-16.32-2.17-24.25-4.71-8.1-2.6-16.44-5.05-24.96-2.18-8.35,2.82-15.01,10.39-13.48,20.18,1.13,7.2,10.89,15.81,18.68,15.62,19.04-.46,37.2,4.11,55.45,8.65,11.85,2.95,23.95,4.94,36.78,4.4-.74,1.33-1.08,2.46-1.82,3.19-13.15,13.16-25.29,27.55-41.98,36.56-8.73,4.71-18.27,7.47-28.19,8.21-11.78.88-22.99,3.62-33.53,8.92-9.14,4.61-18.88,5.62-28.89,5.33-2.49-.07-4.99-.1-7.48-.14-.54-1.17-1.16-1.31-1.9-.16Zm-89.86-12.94c1.61,0,2.44,0,3.26,0,3.08-.04,8.05.94,8.21-2.4.21-4.46-4.87-3.29-8.1-3.64-6.94-.76-13.53,1.74-20.34,2.12-2.95.16-5.78-.2-8.57-1.64-1.64-.84-4.46-1.72-5.5.84-.96,2.39.94,3.79,3.13,4.76,2.69,1.19,5.39,1.91,8.37,2.15,6.94.55,13.38-3.02,19.52-2.18Zm135.41-34.85c-4.94-1.33-8.84,1.8-13.11,3.09-4.77,1.44-9.52.23-14.23.87-1.32.18-2.03.92-2.29,2.18-.29,1.42.7,2.23,1.62,2.83,4.02,2.6,8.23,2.08,12.74,1.16,5.22-1.06,9.68-4.51,15.28-4.32,2.65.09,7.01,1.3,7.15-2.63.16-4.56-4.42-2.87-7.16-3.18Zm-89.51,9.15c-.23-1.82-1.41-2.34-3.09-2.34-6.45,0-12.18,2.41-17.68,5.42-1.75.96-1.67,2.81-.95,4.38.87,1.89,2.17.98,3.63.44,5.06-1.85,10.16-3.6,15.34-5.05,1.73-.48,2.58-1.13,2.75-2.86Zm30.55,21.49c-1.61.52-3.3-.35-3.65,1.66-.37,2.17.83,3.57,2.59,4.29,5.43,2.24,10.64,1.07,15.73-1.35,1.56-.74,3.19-1.42,2.56-3.53-.61-2.04-2.62-2.33-4.07-1.68-4.51,2.03-8.95,2.79-13.16.6Z"/><path class="f" d="m910.82,486.56c.36,13.15-1.8,25.3-7.17,36.71-3.93,8.35-11.48,13.3-18.63,18.56-5.98,4.4-12.71,7.58-18.74,11.95-5.71,4.14-8.21,9.98-9.79,16.26-1.63,6.46-2.82,12.87-10.66,14.56-8.18,1.76-14.08-2.66-19.66-7.63-2.09-1.86-3.94-4.02-5.7-6.2-4.92-6.09-12.24-6.73-18.05-4.41-15.11,6.04-30.59,10.9-45.92,16.21-8.18,2.83-14.94,8.18-22.85,11.45-9.52,3.93-18.44,1.28-22.37-7.1-2.71-5.79-.4-10.36,3.13-14.76,3.81-4.75,8.96-7.35,14.55-9.31,7.47-2.63,14.86-5.33,21.56-9.79,7.89-5.26,11.69-13.57,16.54-21.05,9.31-14.35,22-24.75,37.57-31.02,10.48-4.22,21.76-6.53,32.16-11.12,13.14-5.8,26.75-10.17,40.54-13.99,9.91-2.75,19.94-5.07,29.89-7.69,2.05-.54,2.68.08,2.66,2.05-.04,5.65,1.52,11.21.92,16.34Zm-44.9,30.22c-6.97.03-16,5.6-20.73,12.33-1.12,1.59-1.88,2.87-.23,4.17,1.37,1.08,3.16,1.11,4.41-.35,4.77-5.55,10.77-9.16,17.61-11.52,1.57-.54,2.44-1.55,2.02-3.33-.47-1.96-2.07-1.07-3.08-1.3Zm-47.42,9.07c-4.07,1.35-7.85,4.76-11.41,8.56-1.69,1.8-3.39,3.72-1,5.81,1.97,1.72,3.89.46,5.54-1.27,2.92-3.04,5.38-6.63,9.63-8.14,1.79-.64.78-2.26.82-3.46.07-1.82-1.32-1.49-3.58-1.51Z"/><path class="f" d="m788.22,280.83c11.23-.98,23.2-.99,35.15-.73,4.68.1,9.42.43,14.01,1.81,1.94.58,3.22,1.53,3.61,3.54.45,2.26-1.09,3.37-2.66,4.32-2.55,1.53-5.3,2.07-8.35,2.3-11.59.88-23.41.47-34.46,5.16-11.75,4.99-21.81,12.43-30.56,21.56-2.75,2.87-5.12,3.34-8.46,1.95-7.21-3.01-15.05-2.43-22.56-3.73-2.85-.5-3.77-.66-2.93-4.18,2.01-8.41-.85-12.56-8.91-16.09-9.37-4.11-18.79-3.6-28.16-.66-4.08,1.29-6.96,4.38-6.68,9.22.11,1.89-.43,3.2-2.29,3.81-7.34,2.41-14.5,4.05-22.33,1-6.33-2.47-12.31-5.76-18.75-7.87-8.9-2.92-17.11-2.48-20.68,6.9-.64,1.68-1.95,2.85-4.17,2.82-9.04-.13-18.03-.76-26.98-2.03-1.53-.22-3.03-.71-3.57-2.08-.7-1.77,1.2-2.44,2.13-3.53,6.1-7.18,14.46-8.68,23.18-9.33,9-.67,18.04-.97,26.97-2.19,14.64-1.99,20.51-11.57,17.4-27.43-.61-3.1-3.34-6.14-1.4-9.3,2.57-4.2,6.94-6.45,11.52-7.76,11.9-3.4,24.11-4.84,36.45-3.98,9.8.69,19.47,2.56,29.37,2.67,9.36.1,17.88-1.98,26.04-6.46,6.13-3.36,12.68-5.7,19.87-5.58,1.32.02,2.47.26,3.74.81,5.92,2.6,7.16,5.8,3.71,11.17-4.12,6.4-8.62,12.56-14.4,17.57-1.94,1.68-3.35,3.72-4.61,5.74-2.54,4.06.11,8.77,4.86,9.76,4.71.97,9.45.32,14.88.82Zm-63.25-9.91c-3.87-.77-7.81,1.15-11.87,2.12-1.68.4-3.37,1.94-2.74,4.08.67,2.27,2.95,2.29,4.55,1.65,4.73-1.91,9.56-2.91,14.65-2.85,2.15.02,2.71-1.38,2.68-3.32-.04-2.2-1.63-1.59-2.82-1.66-1.32-.07-2.65-.02-4.46-.02Zm37.44,19.03s0,.09,0,.13c1.99,0,3.98-.06,5.97.02,1.76.07,3.13-.8,3.28-2.33.16-1.6-.7-3.49-2.59-3.56-4.46-.17-8.95-.13-13.41.18-1.36.1-2.69,1.33-2.51,3.2.16,1.7,1.56,2.17,2.8,2.29,2.13.21,4.3.06,6.46.06Z"/><path class="h" d="m837.99,590.97c-2.72,10.39-8.25,19.06-13.66,27.45-10.19,15.82-21.66,30.79-35.72,43.59-16.49,15.01-34.07,28.55-53.39,39.66-7.23,4.16-15.57,3.55-23.59,2.85-14.79-1.28-29.11-5.08-43.42-8.8-1.96-.51-5.36-.42-5.4-2.37-.05-2.56,3.14-1.16,4.87-1.65,7.51-2.11,15.3-3.09,22.68-5.83,7.45-2.77,14.02-6.68,19.26-12.73,5.08-5.86,10.43-11.4,17.12-15.51,6.1-3.75,9.07-9.83,11.29-16.3,3.66-10.71,11.41-18.58,18.44-26.96,4.99-5.95,10.19-11.72,15.02-17.79,2.49-3.14,4.75-6.68.56-10.47-2.23-2.01.44-2.6,1.35-2.86,7.14-2.09,14.1-4.67,21.09-7.2,3.3-1.2,6.19-3.31,9.77-3.93,5.02-.87,9.79-.62,12.98,3.74,5.34,7.29,12.35,12.08,20.75,15.1Z"/><path class="h" d="m403.59,487.92c-4.21,9.49-11.8,15.71-20.32,21.02-2.89,1.8-6.23,3.12-8.6,5.44-3.63,3.56-6.72,2.15-9.95-.03-1.88-1.27-3.43-3.05-5.29-4.36-2.95-2.08-3.62-4.49-1.72-7.62,1.6-2.65,1.04-4.93-1.07-7.18-4.36-4.65-4.28-6.78.05-11.67.88-.99,1.97-1.84,2.64-2.95.58-.97.92-2.54-.88-2.62-10.76-.51-18.65-8.88-28.47-10.89-14.59-2.98-27.53-10.57-42.09-13.31-5.74-1.08-5.62-6.63-6.81-10.86-2.85-10.15,1.68-20.36,10.61-23.49,5.42-1.9,11.16-2.89,16.95-2.38,9.21.81,17-3.7,20.49-12.78,1.74.88,3.57,1.63,5.21,2.66,6.99,4.42,13.94,5.45,22.12,2.51,8.73-3.14,14.77,2.75,15.12,13.88.25,8.2,3.88,14.54,9.31,20.33,5.31,5.66,11.46,10.58,15.63,17.3,5.62,9.05,3.06,14.26-7.66,14.9-3.39.2-6.87.65-10.28-.81-1.3-.55-3.39-.73-4.54.97-1.15,1.69.5,2.88,1.23,3.85,3.05,4.08,6.2,8.12,9.68,11.83,3.48,3.71,7.89,3.25,13.24-.92,1.56-1.22,2.82-2.85,4.82-3.45.16.23.35.44.56.63Z"/><path class="f" d="m500.17,32.94c-6.45-1.65-12.68,2.78-19.27,5.33-7.09,2.74-14.01,2.62-21.48,2-14.35-1.19-28.79-1.02-42.47,4.83-8.66,3.71-16.52,8.87-24.74,13.39-15.97,8.77-32.19,9.46-48.05-.58-8.65-5.47-5.75-12.22-.16-16.55,5.55-4.31,12.18-6.16,19.11-7.35,14.43-2.48,29.22-3.11,43.21-7.99,11.48-4,22.78-8.44,34.68-11.32,5.4-1.31,10.89-1.89,16.25-2.39,6.17-.57,12.37-1.55,18.69-1.33,9.14.31,18.05-2.28,27.11-3.25,9.86-1.05,19.71-1.51,29.46.5,2.64.54,5.1,2.17,7.02,4.36,4.87,5.52,11.09,7.79,18.37,7.44,4.4-.21,8.66.63,12.89,1.78,1.6.44,2.41,1.64,3.42,2.69-1.08.72-2.08,1.61-3.24,2.12-7.99,3.47-8.79,5.07-6.74,14,.93,4.04-.1,6.82-4.44,8.16-11.91,3.67-24.43,5.01-36.08,9.87-4.5,1.87-9.89,1.6-14.86,2.34-2.03.3-3.57-.93-3.73-2.42-.1-.92,1.97-1.64,3.55-1.52,1.44.11,2.78-.27,4.23-.75,4.84-1.59,9.5-3.33,10.43-8.98.75-4.58-4.53-10.95-10.14-13.24-3.82-1.56-7.81-1-13.02-1.14Zm-123.12,8.01c-2.6-.37-5.71.34-8.67,2.01-2,1.13-2.28,2.76-1.46,4.59.82,1.82,2.12,1.34,3.62.56,2.84-1.47,6-1.11,9.09-1.18,3.9-.09,7.55-.86,10.87-3.26,1.75-1.26,2.73-2.49,1.69-4.34-1.1-1.95-3.14-1.96-4.69-.69-2.92,2.39-6.25,2.41-10.45,2.31Zm108.94-16c.49,0,.99.02,1.48,0,2.03-.08,4.91.7,4.96-2.39.04-2.83-2.88-3.03-5.04-3.56-.46-.11-.98,0-1.48,0-2.83.09-7.12-.84-7.08,3.01.03,3.78,4.31,2.91,7.16,2.93Z"/><path class="h" d="m567.28,524.39c.27,4.5-.14,8.14,1.56,11.88,1.37,3.03,1.3,6.74-2.1,9.42-3.68,2.9-5.64,7.14-7.35,11.35-1.23,3.01-3.67,4.52-6.27,4.67-5.59.32-11.21.58-16.84-.36-6.26-1.04-12.65-.77-18.93-2.4-7.21-1.87-14.4-4.17-22.02-4.16-3.76,0-2.17-2.21-1.29-3.91,2.82-5.52,5.47-11.16,8.62-16.49,1.74-2.95.73-4.67-1.48-6.26-1.61-1.16-3.37-2.13-5.14-3.02-4.89-2.44-9.23-4.46-11.27-10.92-1.09-3.46-2.31-6.65-2.21-10.3.09-3.32-1.44-5.57-4.29-7.16-7.24-4.06-15.1-7.2-20.23-14.35-1.88-2.63-2-8.23.46-11.29,2.18-2.71,4.46-.71,6.59.13,6.44,2.54,8.5,2.02,12.46-3.68,1.35-1.94,2.98-2.25,4.61-.82,3.24,2.83,6.93,3.58,11.07,3.21,1.02-.09,2.54-.54,3.02.86.5,1.47-.56,2.25-1.78,3.07-7.51,5.01-7.78,6.42-2.18,13.22,3.27,3.97,2.97,8.94,3.98,13.47,1.01,4.54,3.8,7.56,7.46,9.12,4.66,1.99,8.93,4.36,12.33,7.97,3.13,3.32,6.52,2.28,8.33-.24,3.84-5.33,8.51-5.13,13.49-3.2,5.21,2.03,9.67,1.62,13.96-2,1.71-1.44,3.63-1.67,5.81-.33,2.03,1.25,4.38,2.73,6.61,2.77,3.7.06,3.3,2.45,3.41,4.55.1,1.97-.28,3.97-.39,5.18Zm-12.92,3.57c.47-3.12-.2-5.64-3.92-5.63-6.98.01-13.32,2.62-19.61,5.32-3.66,1.57-4.79,5.85-2.44,8.91,3.54,4.6,9.61,7.07,15.46,5.39,5.23-1.5,10.33-8.55,10.5-13.99Z"/><path class="f" d="m747.28,166.98c12.53-.47,23.39,1,34.26,2.76,7.25,1.18,14.32-.54,20.78-3.99,5.16-2.76,5.81-6.83,2.44-11.76-3.94-5.76-8.77-10.71-13.65-15.65-1.61-1.63-5.08-3.13-3.63-5.8,1.65-3.05,4.45-5.2,8.58-5.72,11.65-1.49,17.33,6.23,22.82,14.18,5.27,7.63,8.61,16.46,14.46,23.78.82,1.03,2.15,2.79-.71,3.14-2.17.27-2.92,1.58-2.61,3.43.35,2.13,1.65,3.54,3.99,3.61,1,.03,2,.06,2.99,0,8.83-.58,13.55,5.5,18.06,11.53,2.06,2.75,3.34,6.59.33,9.33-2.54,2.31-6.32,1.61-9.39.55-11.95-4.13-23.77-8.63-35.72-12.75-12.43-4.28-25.06-3.79-37.42.05-12.61,3.92-25.43,5.93-38.54,5.14-5.7-.34-11.61-.84-16.88-3.75-5.45-3.01-6.19-7.35-1.47-11.37,5.65-4.81,12.84-5.73,19.83-6.6,4.26-.53,8.64-.1,11.47-.1Z"/><path class="h" d="m539.86,411.26c.14,2.3-1.93,2.67-2.99,3.78-3.56,3.74-3.24,5.71,1.87,6.77,2.93.61,4.01,1.1,2.8,4.39-.78,2.12-1.24,5.09,1.65,6.63,3.17,1.69,6.84.89,9.14-.78,4.86-3.54,9.61-6.9,15.53-8.47,2.19-.58,2.81-2.69,2.54-4.88-.31-2.57-1.92-3.82-4.4-3.77-2.94.06-6.17.82-6.57-3.59-.38-4.23,2.47-5.38,5.83-6.55,2.87-1,5.42-2.9,8.15-4.34,2.16-1.14,4.28-3.13,6.81-2.36,2.39.73,6.27.73,6.72,2.99.5,2.49-.97,5.79-3.14,7.82-2.46,2.3-4.14,4.64-3.37,8.17.1.47.14,1.19-.12,1.46-3.96,3.99-4.85,7.97-1.07,12.8.95,1.21-1.48,2.77-2.78,3.59-11.79,7.39-23.64,14.68-35.48,21.99-2.42,1.49-5.08,2.21-7.92,1.91-4.49-.48-8.55.89-11.88,3.63-2.31,1.9-3.96,1.61-6.13.23-3.44-2.18-6.9-4.33-10.48-6.25-2.7-1.45-4.29-3.12-4.21-6.52.08-3.42,1.3-5.52,4.4-6.88,4.06-1.79,6.34-4.57,5.76-9.53-1.27-10.76,6.39-16.99,13.31-22.81,2.91-2.45,8.27-1.13,12.51-.18,1.2.27,2.4.51,3.54.75Z"/><path class="f" d="m639.88,418.28c-9.93,6.92-20.34,12.84-29.4,20.64-14.83,12.77-32.55,21.36-47.86,33.4-4.97,3.91-9.39,8.51-15.29,11.14-1.76.79-3.41,1.96-5.67,1.09.91-2.18,1.99-4.32,2.63-6.57.24-.86.85-2.53-.69-3.01-1.37-.42-2.85.15-3.14,1.68-.47,2.48-2.15,4.44-2.76,6.73-.87,3.29-3.79,1.97-5.59,3.04-.53.32-1.9-.46-.92-1.83.46-.64.98-1.44.98-2.17,0-1.99,2.21-4.93-.84-5.7-2.23-.56-1.66,2.71-2.42,4.19-1.33,2.6-2.1,7.55-5.01,6.37-3.09-1.25-1.94-6.2-.9-9.4,2.66-8.19,9.54-12.09,16.59-16,8.86-4.92,17.54-10.2,25.98-15.8,3.82-2.54,7.93-2.43,11.99-3.08,3.56-.57,3.61-.4,1.97-3.66-.8-1.59.07-2.55,1.24-3.3,4.88-3.13,9.78-6.23,14.71-9.28.95-.58,1.97-1.37,3.23-.92,7.89,2.83,14.95-.3,22.07-3.04,6.16-2.36,12.33-4.67,19.09-4.54Z"/><path class="h" d="m330.13,709.06c5.57-1.19,10.72.66,15.95.93,13.73.71,27.45.87,41.19.87,13.7,0,27.02-2.25,40.25-5.58,5.18-1.3,10.67-.96,15.85-.25,4.92.68,9.98.67,14.85,2.54,3.51,1.35,6.77,2.93,9.88,4.74-1.46,3.73-5.18,2.64-7.76,3.26-12.92,3.1-25.48,7.63-38.64,9.71-6.16.98-12.34,2.08-18.55,2.4-7.72.39-15.4.89-23.02,2.11-9.5,1.52-17.59-3.17-25.83-6.33-8.62-3.3-16.99-7.59-24.16-14.4Z"/><path class="e" d="m287.96,457.76c7.03,1.14,13.18,3.27,19.16,5.86,5.76,2.49,11.36,4.98,17.83,5.65,4.96.51,9.67,2.84,13.84,6.06,2.99,2.31,6.62,3.89,10.39,4.46,3.4.51,4.1,1.85,2.27,4.55-3.13,4.63-2.35,8.72,1.51,12.42,1.33,1.28,2.06,2.78,1.34,4.47-2.49,5.94.44,9.87,4.73,13.34,1.03.83,2.23,1.46,3.31,2.23,1.65,1.17,4.8,2.22,3.51,4.41-1.41,2.4-3.3,5.67-7.39,4.73-3.86-.89-7.02-2.98-9.91-5.53-5.64-4.99-10.41-10.77-14.96-16.73-10.26-13.46-22.14-25.27-35.64-35.48-3.71-2.81-6.89-6.18-10.02-10.44Z"/><path class="h" d="m390.33,406.22c7.03-1.12,11.19,2.36,14.64,6.65,5.77,7.19,11.22,14.63,16.75,22.01,3.3,4.41,7.39,8.05,11.17,11.99,3.03,3.16,4.6,6.35,2.39,10.99-1.63,3.42-2.82,7.34-1.11,11.39,1.08,2.56-.8,2.68-2.59,2.6-5.03-.23-9.78.85-14.31,2.99-1.21.57-3.11,2.25-3.46-.02-.33-2.18-1.98-5.45,1.75-6.85.44-.17.99-.05,1.49-.09,7.37-.6,8.3-2.54,4.86-9.36-1.37-2.72-3.13-5.04-5.3-7.11-4.59-4.38-8.65-9.03-10.27-15.47-.79-3.14-3.81-4.83-6.08-6.95-1.16-1.09-2.95-1.84-2.69-3.88.95-7.35-1.63-13.48-7.25-18.9Z"/><path class="h" d="m209.85,567.69c-9.98,2.79-15.27-2.57-19.57-10.64-4.55-8.51-9.65-16.73-13.55-25.59-.46-1.05-1.49-2.08-.6-3.11.94-1.1,2.04-.01,3.12.27,9.97,2.57,18.32,8.5,27.29,13.12,1.45.75,2.31,1.84,2.21,3.55-.35,6.17,3.77,9.82,7.67,13.58.34.33.9.43,1.28.74,2.45,1.93,5.8,4.53,4.87,7.18-.84,2.41-5.04.76-7.76.89-1.65.08-3.31.01-4.96.01Z"/><path class="h" d="m586.7,626.73c-2.37.43-6.05,1.05-9.71,1.78-4.24.85-7.53.72-8.64-4.74-.96-4.73-4.61-8.28-7.51-11.91-2.67-3.34-3.63-7.23-5.21-10.89-.76-1.77-.75-4.1,1.18-5.93,2.07-1.96,3.95-1.04,5.85-.14,6.61,3.13,13.3,6.11,19.72,9.6,7.75,4.22,8.79,12.51,11.06,19.93.57,1.86-.54,2.28-6.74,2.29Z"/><path class="h" d="m681.42,557.33c8.35-4.4,12.84-4.24,15.51,1.2,2.33,4.74,4.85,8.73,10.17,10.32,2.62.78.39,2.05.03,2.9-2.27,5.28-5.03,10.46-1.35,16.25.87,1.37-.27,1.47-1.31,1.77-5.29,1.5-10-.94-10.94-6.47-.59-3.47-2.03-6.24-4.1-8.82-1.29-1.61-2.06-3.5-2.09-5.35-.08-4.83-2.21-8.49-5.92-11.81Z"/><path class="g" d="m486.49,554.64c-4.02-1.75-8.19-3.23-12.03-5.15-9.44-4.73-19.45-7.93-29.13-11.97-2.21-.92-5.88-1.29-3.75-5.6,1.81-3.65,3.65-4.53,7.73-2.64,12.83,5.93,25.93,11.27,38.87,16.94,1.23.54,3.97.41,2.86,2.99-.94,2.17-1.68,4.78-4.54,5.43Z"/><path class="e" d="m690.67,313.72c2.02-2.55,4.58-4.81,2.72-8.63-.79-1.62.82-2.34,2.03-2.81,9.04-3.51,18.04-3.84,26.89.6,4.14,2.08,3.09,5.91,2.65,9.24-.48,3.68-3.54,3.18-6.22,3.14-7.64-.14-15.28-.18-22.92-.35-1.59-.04-3.35.55-5.15-1.18Z"/><path class="f" d="m478.34,522.79c8.65-.14,13.9,5.5,20.37,8.22.14.06.36.21.35.31-.23,4.49-3.58,7.69-4.94,11.77-.54,1.62-2.55.58-4.18-.15-7.8-3.53-15.7-6.87-23.69-9.97-1.3-.51-1.83-1.14-2.18-2.13-.52-1.48.81-1.62,1.72-2.18,4.22-2.6,7.88-6.45,12.55-5.87Zm3.08,11.25c1.08-.55,3.56.48,2.9-1.52-1.01-3.11-4.47-2.94-7.12-3.65-1.04-.28-2.16.08-1.81,1.46.8,3.15,3.56,3.26,6.02,3.71Z"/><path class="h" d="m424.66,528.83c4.34-5.84,9.64-9.41,16.39-10.7,3.07-.59,6.01-.24,8.18,2.16,1.16,1.28,2.97,3.16,2.04,4.72-1.14,1.91-2.69-.45-4.08-.82-2.63-.69-4.8-.59-6.4,2.07-1.5,2.49-3.28,4.82-4.97,7.19-.01.02-.5-.36-.79-.48-3.42-1.38-6.85-2.74-10.36-4.14Z"/><path class="e" d="m212.83,546.36c9.33,5.78,17.12,12.11,24.94,18.39.66.53,1.25,1.19.96,2.1-.31.96-1.24.95-2.06.95-4.28.02-8.72,1.06-10.91-4.67-1.29-3.35-4.61-5.51-7.46-7.82-2.46-2-5.36-3.88-5.47-8.94Z"/><path class="e" d="m278.04,375.67c-5.9.72-10.93-2.36-16.38-3.06-1.17-.15-1.24-1.38-1.02-2.43.99-4.56,7.09-6.82,10.8-3.92,3.07,2.4,5.07,5.6,6.6,9.4Z"/><path class="h" d="m704.13,485.27c-7.62-.81-15.08,2.81-22.67.49-2.2-.67-4.55-1.64-4.2-4.64.16-1.38-.84-3.23.81-4.08,1.6-.82,2.05,1.26,3.14,1.86,5.85,3.23,12.3,4.13,18.77,4.99,1.4.18,2.91-.35,4.15,1.38Z"/><path class="h" d="m585.07,461.9c3.29-2.3,6.28-4.47,9.35-6.52,4.93-3.31,4.94-3.13,7.08,2.78.75,2.07.64,2.97-1.33,3.73-4.9,1.88-9.78,3.24-15.1.01Z"/><path class="e" d="m593.64,423.56c-2.48,1.67-4.78,2.98-6.8,4.64-2.31,1.91-3.6.93-5.25-.96-1.77-2.02-1.62-3.33.57-4.71,3.58-2.24,1.5-6.35,2.8-10.18,2.98,4.17,4.95,8.12,8.67,11.2Z"/><path class="g" d="m518.42,487.8c0,3.31-3.69,7.22-6.65,7.01-1-.07-1.89-.46-1.89-1.64,0-1.49,5.7-7.1,7.08-7.23,1.62-.16,1.48.86,1.46,1.87Z"/><path class="f" d="m453.8,520.95c3.01.2,6.23-1.28,7.79,3.01.79,2.18.65,2.78-1.32,4.07-2.52,1.64-2.7-.4-3.42-1.51-1.12-1.73-1.99-3.61-3.05-5.58Z"/><path class="g" d="m483.12,517.72c-5.24.04-9,2.41-13.95,3.93,1.84-4.77,6.62-5.05,9.58-7.34,1.71-1.32,2.85,1.15,4.36,3.41Z"/><path class="i" d="m645.31,420.92c3.72-3.31,8.33-4.86,12.96-6.38-4.21,2.36-8.12,5.31-13,6.33l.04.05Z"/><path class="i" d="m373.31,71.36c-2.8,1.2-5.62,1.02-8.43.1,2.79-1.93,5.6-1.66,8.43-.1Z"/><path class="i" d="m561.87,420.6c.96-1.61,2.21-2.43,3.97-2.16.21.03.56.96.41,1.2-1.07,1.68-2.66,1.3-4.38.96Z"/><path class="i" d="m610.09,317.08c-1.6,1.08-3.15,1.25-4.61-.25,1.58-.76,3.13-.82,4.61.25Z"/><path class="h" d="m465.54,775.08c1.33-1.94,2.25-1.62,2.83.52-1,.13-2.09.76-2.83-.52Z"/><path class="i" d="m622.19,318.73c-.82.08-1.51-.1-1.83-.96,1.08-.57,1.71-.29,1.83.96Z"/><path class="g" d="m579.41,772.7c.74-1.15,1.36-1.01,1.9.16-.75,1.31-1.39,1.31-1.9-.16Z"/><path class="i" d="m645.27,420.87c-.23.19-.44.4-.68.56-.06.04-.22-.06-.34-.09.35-.14.71-.28,1.06-.42,0,0-.04-.05-.04-.05Z"/><path class="h" d="m403.03,487.29c.39-.04,1.01-.24,1.11-.08.35.52-.18.6-.55.71-.21-.19-.4-.4-.56-.63Z"/><path class="d" d="m503.83,267.21c-2.8-.34-5.61-.63-8.41-1.02-4.02-.56-7.99-.5-11.78,1.09-2.58,1.09-6.19,2.15-6.64,4.65-.49,2.71,3.6,2.66,5.51,4.08,2.74,2.04,5.21,3.96,5.02,7.97-.23,4.79-2.71,6.76-7.4,5.38-.79-.23-1.6-.43-2.36-.74-6.32-2.56-8.62-.99-8.29,5.65.55,10.77-1.76,13.94-12.56,16.59-1.52.37-2.83.76-3.89,1.84-3.36,3.43-7.16,3.98-10.91,1.01-3-2.38-5.64-2.17-8.66-.33-1.81,1.11-3.76,2.01-5.71,2.88-2.58,1.15-5.3,1.56-7.03-1.23-2.49-4.01-6.07-4.38-10.28-4.16-6,.31-9.87-3.65-9.95-9.63-.06-4.62,2.71-7.25,7.15-6.16,3.84.94,7.27,1.85,10.48-1.6,1.43-1.53,3.72-1.01,4.79.72,2.17,3.52,3.57,1.99,5.29-.32.66-.88,1.74-1.73,2.78-2,10.91-2.78,15.49-11.47,19.39-20.74,1.41-3.36,3.81-5.8,6.46-8.11,2.63-2.29,3.91-4.62,2.91-8.58-1.31-5.22-2.56-10.56-2.36-16.12.33-9.12,3.94-16.13,12.46-19.8,7.16-3.08,13.07-6.78,15.13-15.15.81-3.28,4.12-6.11,7.9-5.9,4.84.27,10.22.39,13.17,5.36,2.49,4.21,1.73,8.2-1.63,11.8-3.94,4.24-9.17,5.83-14.49,6.96-4.47.95-6.15,3.36-5.67,7.74.23,2.15.19,4.32.23,6.49.14,6.52-2.37,11.67-8.3,14.64-3.35,1.68-2.66,2.54-.13,4.52,3.95,3.08,8.05,2,11.74.57,8.19-3.18,16.38-3.15,24.74-1.5,2.38.47,4.36,1.69,4.8,4.4.44,2.76-.51,4.84-2.95,6.32-3.27,1.99-6.81,2.57-10.57,2.41Zm-23.24-42.38c.85-4.74,4.56-6.05,8.51-6.78,4.26-.8,8.15-2.35,11.58-4.96,3.25-2.46,3.86-6.79,1.46-9.11-4.6-4.43-11.61-3.56-14.01,2.33-3.08,7.56-8.34,12.35-15.74,15.24-1.84.72-3.45,1.97-5.21,2.91-2.65,1.42-3.93,3.65-4.71,6.53-1.8,6.58-1.31,13.09.36,19.51,1.72,6.63,1.21,12.27-4.86,16.58-2.4,1.7-4,4.16-5.11,6.98-3.77,9.51-8.73,17.99-19.53,20.97-2.07.57-3.35,1.94-4.27,3.81-.94,1.92-3.36,3.12-4.46,1.94-3.51-3.73-6.89-1.79-10.55-.87-1.49.38-3.2.12-4.87-.45-1.55-.53-4.28-1.97-4.52,1.43-.18,2.63.35,5.54,3.74,6.03,2.11.31,4.33.15,6.47-.04,2.42-.22,4.59.58,5.56,2.55,2.69,5.49,6.6,2.98,9.75,1.35,4.97-2.56,9.51-3.01,14.29.09,1.34.87,2.87,1.96,4.4.14,2.4-2.85,5.76-3.55,9.18-4.34,6.57-1.53,8.31-3.92,8.35-10.72.01-2,0-4,.05-5.99.11-3.67,1.83-5.83,5.68-6.04,2.49-.14,4.91-.16,7.09,1.31,1.33.9,3.18,1.37,3.96,0,.88-1.53.74-3.68-1.17-4.84-1.67-1.01-3.49-1.78-5.23-2.68-4.6-2.39-5.59-6.37-1.78-9.68,4.92-4.27,10.83-5.83,17.56-5.57,5.62.22,11.24,3.02,16.93.43,1.47-.67,3.64-.87,3.77-2.79.18-2.64-2.69-2.45-4.03-2.66-6.21-.97-12.41-.71-18.58.98-6.51,1.78-13.15,3.48-18.88-2.28-3.49-3.51-3.26-5.43.93-7.99,2.97-1.81,7.05-2.76,6.86-7.52,1.58-.41,2.25-1.11.76-2.46.67-1.48.59-2.96.07-4.46,1.41-2.93.76-5.9.19-8.87Z"/><path class="d" d="m348.26,234.86c7.25-.02,9.02,2.07,6.86,9-.71,2.27.02,3.83.78,5.57,2.86,6.44,2.43,8.32-4.03,10.31-3.11.96-3.17,1.78-1.83,4.15,2.21,3.89,1.38,7.72-.23,11.65-3.05,7.44-2.68,14.89.18,22.4,2.69,7.05,2.04,8.11-5.01,10.44-2.08.69-3.88,1.44-4.32,4.08-.88,5.32-4.58,7.5-9.82,6.03-6.23-1.75-12.1-4.76-18.85-4.76-2.02,0-4.77-.61-5.27-3.52-.58-3.35,1.56-5.44,4.08-6.78,2.46-1.3,4.39-2.13,2.93-5.58-.91-2.16.1-4.07,2.63-5,3.93-1.45,7.04-3.65,8.05-8.23.45-2.03,2.15-3.61,4.74-3.76,4.59-.26,5.93-2.76,5.27-7.25-.48-3.24,0-6.63.16-9.96.14-2.84-.12-5.38-1.91-7.9-1.64-2.31-2.53-5.2,1.22-6.97,1.07-.5,1.64-1.46,1.81-2.75,1.29-9.44,3.25-11.16,12.55-11.18Zm-.72,3.99c-5.86.09-8.24,1.21-7.86,4.34.51,4.21-2,6.64-3.51,9.88-1.02,2.2,3.38,6.31,2.41,10.39-.23.96-.09,2-.3,2.97-.69,3.14-.67,6.28-.12,9.42.83,4.69-1.04,7.49-5.78,7.98-2.89.3-4.55,1.48-5.09,4.43-.58,3.16-2.32,5.27-5.63,6.24-3.97,1.16-5.21,3.28-1.3,6.29.96.74,1.7,1.67,1.12,2.99-.59,1.36-1.88,1.14-3.02,1.21-2.19.12-4.24.71-6.1,1.85-.64.4-1.58.92-1.17,1.87.22.5.97,1.06,1.52,1.1,6.66.51,12.76,3.08,19.06,4.96,2.68.8,5.39-.03,5.61-3.18.32-4.64,2.92-6.28,6.97-6.87,2.8-.4,3.87-1.37,2.45-4.63-3.85-8.83-4.24-17.74.18-26.72,1.58-3.22,1.22-6.91-1.33-9.83-1.63-1.86-1.33-3.99.47-4.55,7.84-2.45,7.31-7.84,5.52-13.93-.18-.62-.18-1.35-.05-1.98.77-3.81-1.13-4.74-4.04-4.23Z"/><path class="d" d="m399.56,113.3c.17,3.43-1.25,6.41-2.78,9.32-1.57,3-1.7,5.93,0,8.9,1.84,3.22.82,6.65-2.01,7.66-8.58,3.07-12.78,11.24-19.89,15.9-5.07,3.32-9.87,7.2-15.3,9.75-3.88,1.81-8.58,3.47-12.94.14-3.17-2.42-7.52-2.26-10.65-4.84-5.01-4.13-5.89-9.57-2.55-15.18,3.09-5.17,7.42-8.46,13.27-10.04,3.63-.98,6.37-2.89,8.45-6.65,4.07-7.37,10.98-12.21,18.24-16.16,4.78-2.6,9.17-5.94,14.62-7.41,7.13-1.93,11.55,1.13,11.52,8.6Zm-4.02.38c.1-5.6-2.01-7.08-7.22-4.99-1.82.73-3.68,1.43-5.35,2.43-8.44,5.08-18.3,8.63-23.41,17.69-3.01,5.33-6.81,8.61-12.5,9.8-4.44.92-7.07,4.18-9.57,7.27-4.17,5.15-1.71,11.63,4.73,13,2.35.5,4.45,1.35,6.29,2.72,2.07,1.55,3.94,1.69,6.34.67,8.29-3.54,15.61-8.58,22.29-14.52,4.27-3.79,7.81-8.52,13.28-10.72,3.15-1.27,4-2.97,2.21-5.89-1.94-3.16-1.26-6.2.37-9.23,1.38-2.57,2.77-5.15,2.53-8.23Z"/><path class="d" d="m310.71,260.03c3.34,1.29,7.57,1.07,12.12-.86,3.54-1.5,5.16.63,4.52,4.44-.68,4.1-2.51,7.38-5.79,9.97-3.31,2.61-5.11,6.38-6.96,10.05-2.68,5.33-7.4,7.5-13.12,5.61-1.71-.57-3.55-.75-4.8-.11-3.39,1.75-4.63-.68-5.73-2.71-1.34-2.46-.28-4.7,2.3-5.63,6.45-2.33,8.14-7.66,9.55-13.61.79-3.31,1.24-7.89,7.91-7.15Zm12.84,2.86c-2.06.83-3.78,1.32-5.29,2.17-1.75.99-3.34,1.42-5-.02-4.19-3.66-5.81-.96-6.48,2.86-1.31,7.44-4.26,13.55-11.78,16.49-.11.04-.01.59-.01,1.05,2.49,1.07,5.19-1.92,7.54.02,2.82,2.33,5.63.81,6.82-1.08,4.23-6.73,9.57-12.6,13.94-19.19.3-.45.15-1.2.26-2.3Z"/><path class="d" d="m405.42,563.28c.38-4.79,2.55-8.83,5.8-12.33,1.42-1.52,3.3-1.94,4.94-.65,1.95,1.52,1.09,3.26-.37,4.68-2.62,2.57-3.76,5.79-4.44,9.29-.42,2.17-1.91,2.97-4.08,2.6-2.19-.37-1.67-2.11-1.86-3.59Z"/><path class="d" d="m402.6,671.99c.66,2.7-1.16,5.61-1.08,8.77.04,1.73-1.36,2.67-3.03,2.56-1.77-.12-3.18-.91-2.98-3.11.38-4.08.57-8.19,1.21-12.24.29-1.85,1.82-3.24,3.95-2.94,1.95.28,1.92,1.96,1.93,3.48,0,.99,0,1.98,0,3.47Z"/><path class="d" d="m398.59,632.86c-.13-3.88.48-6.42,2.11-8.56,1.09-1.43,2.71-2.04,4.36-.94,1.65,1.1,1.85,2.84.76,4.33-1.4,1.92-1.35,4.01-1.21,6.12.15,2.33-.14,4.73-2.85,4.71-2.16-.02-2.68-2.51-3.14-4.4-.19-.78-.03-1.64-.03-1.28Z"/><path class="d" d="m410.57,591.81c-.98,2.69-2.02,6.13-3.51,9.36-.59,1.27-2.41.82-3.66.46-1.48-.43-2.01-1.67-1.8-3.13.55-3.68,2.48-6.75,4.57-9.7.73-1.03,1.9-1.31,3.07-.64,1.1.63,1.59,1.64,1.33,3.65Z"/><path class="d" d="m728.05,412.94c1.16,0,2.33-.08,3.49.02,1.62.14,3.7-.69,3.72,2.42.02,2.84-1.71,3.36-3.72,3.47-4.23.22-8.52-.38-12.64,1.14-1.35.5-2.96.48-4.14,1.21-1.8,1.11-2.98.56-3.42-1.08-.37-1.4-.95-3.09,1.42-4.05,4.94-1.99,9.95-3.34,15.3-3.13Z"/><path class="d" d="m715.08,375.07c-3.19-.77-6.16.62-9.25.81-1.74.11-3.96.58-4.48-1.86-.51-2.4,1.46-2.68,3.24-3.42,5.69-2.36,11.61-1.51,17.46-1.76,1.75-.07,2.59,1.13,2.66,2.29.09,1.36-.66,2.67-2.3,3.29-2.44.92-4.93.07-7.34.65Z"/><path class="d" d="m740.11,454.04c.08.88-.11,1.64-.87,2.18-3.3,2.34-6.63,4.65-9.9,7.03-1.57,1.15-2.94.75-3.76-.69-.82-1.43-1.09-3.15.55-4.42,3.07-2.37,6.06-4.88,9.29-7,2.29-1.51,4.84.23,4.68,2.89Z"/><path class="d" d="m751.1,483.86c1.62,0,2.94.04,4.27,0,1.65-.06,2.96.13,2.81,2.32-.12,1.75-.29,3.78-2.43,3.56-3.5-.37-6.85,1.44-10.43.26-1.47-.48-2.95-.41-3.22-2.28-.27-1.92,1.25-2.28,2.55-3.1,2.22-1.4,4.52-.37,6.45-.75Z"/><path class="d" d="m173.67,375.08c.23-1.21-.52-2.93,1.6-3.03,1.22-.06,3.1-.89,3.42.87,1.28,7.16,7.8,11.41,9.77,18.15.55,1.89.82,3.75-1.37,4.62-2.03.81-3.56-.27-4.06-2.24-1.49-5.82-7.67-8.93-8.58-15.14-.15-1.01-.59-2.15-.78-3.23Z"/><path class="d" d="m181.95,431.52c.22,1.36-.47,3.49-3.14,4.22-.93.25-3.32.99-2.9-1.17,1.19-6.2-3.77-10.1-5.28-15.26-.6-2.04-2.19-4.07.49-5.23,2.61-1.14,4.03.61,4.92,3.14,1.58,4.51,5.8,7.86,5.91,14.3Z"/><path class="d" d="m200.39,492.79c4.77.18,14.8,9.86,15.26,14.45.14,1.36,0,2.74-1.45,3.39-1.45.66-2.78-.03-3.41-1.22-2.79-5.19-6.84-9.03-11.89-11.95-1.34-.78-1.35-2.21-1.07-3.55.37-1.8,2.03-.48,2.56-1.13Z"/><path class="d" d="m245.53,487.76c3.98.4,5.99,3.53,8.81,5.32,1.77,1.12,2.95,3.01,4.9,4.09,1.86,1.03,2.15,2.92.91,4.68-1.18,1.67-3.01,1.55-4.38.49-4.11-3.2-8.04-6.63-12.07-9.94-1.25-1.02-1.16-2.39-.86-3.63.41-1.7,2.05-.33,2.7-1.01Z"/><path class="d" d="m489.55,759.76c-6.15-.85-12.58,2.73-19.52,2.18-2.98-.24-5.68-.96-8.37-2.15-2.19-.96-4.09-2.37-3.13-4.76,1.04-2.56,3.86-1.68,5.5-.84,2.79,1.44,5.62,1.8,8.57,1.64,6.81-.38,13.4-2.88,20.34-2.12,3.23.35,8.31-.82,8.1,3.64-.16,3.34-5.13,2.36-8.21,2.4-.83.01-1.66,0-3.26,0Z"/><path class="d" d="m624.96,724.92c2.75.31,7.32-1.38,7.16,3.18-.14,3.93-4.5,2.72-7.15,2.63-5.6-.19-10.06,3.26-15.28,4.32-4.51.92-8.72,1.43-12.74-1.16-.92-.59-1.91-1.4-1.62-2.83.26-1.27.97-2,2.29-2.18,4.71-.63,9.46.58,14.23-.87,4.27-1.29,8.17-4.42,13.11-3.09Z"/><path class="d" d="m535.45,734.06c-.17,1.73-1.02,2.37-2.75,2.86-5.18,1.45-10.29,3.2-15.34,5.05-1.47.54-2.76,1.44-3.63-.44-.72-1.57-.8-3.42.95-4.38,5.51-3.01,11.23-5.42,17.68-5.42,1.68,0,2.86.52,3.09,2.34Z"/><path class="d" d="m565.99,755.55c4.2,2.19,8.65,1.43,13.16-.6,1.45-.66,3.46-.36,4.07,1.68.63,2.1-1,2.79-2.56,3.53-5.09,2.42-10.29,3.59-15.73,1.35-1.76-.73-2.96-2.13-2.59-4.29.34-2.01,2.04-1.14,3.65-1.66Z"/><path class="d" d="m865.92,516.78c1.01.23,2.61-.66,3.08,1.3.42,1.78-.45,2.79-2.02,3.33-6.84,2.36-12.84,5.97-17.61,11.52-1.25,1.46-3.05,1.43-4.41.35-1.64-1.3-.88-2.58.23-4.17,4.73-6.73,13.76-12.31,20.73-12.33Z"/><path class="d" d="m818.51,525.84c2.26.02,3.65-.31,3.58,1.51-.04,1.2.97,2.82-.82,3.46-4.25,1.51-6.72,5.1-9.63,8.14-1.65,1.72-3.57,2.99-5.54,1.27-2.39-2.09-.68-4.01,1-5.81,3.56-3.8,7.35-7.21,11.41-8.56Z"/><path class="d" d="m724.97,270.92c1.81,0,3.14-.06,4.46.02,1.18.07,2.77-.54,2.82,1.66.04,1.94-.53,3.34-2.68,3.32-5.09-.06-9.92.94-14.65,2.85-1.61.65-3.88.63-4.55-1.65-.63-2.14,1.06-3.68,2.74-4.08,4.06-.97,8-2.89,11.87-2.12Z"/><path class="d" d="m762.41,289.95c-2.15,0-4.32.16-6.46-.06-1.25-.13-2.64-.59-2.8-2.29-.18-1.87,1.15-3.11,2.51-3.2,4.45-.32,8.94-.35,13.41-.18,1.89.07,2.75,1.97,2.59,3.56-.15,1.52-1.52,2.4-3.28,2.33-1.99-.08-3.98-.02-5.97-.02,0-.04,0-.09,0-.13Z"/><path class="d" d="m377.05,40.95c4.2.1,7.53.08,10.45-2.31,1.55-1.27,3.59-1.26,4.69.69,1.05,1.85.06,3.08-1.69,4.34-3.32,2.4-6.97,3.17-10.87,3.26-3.08.07-6.24-.29-9.09,1.18-1.5.78-2.8,1.27-3.62-.56-.83-1.83-.54-3.47,1.46-4.59,2.96-1.67,6.07-2.38,8.67-2.01Z"/><path class="d" d="m485.99,24.95c-2.85-.02-7.13.85-7.16-2.93-.03-3.85,4.25-2.92,7.08-3.01.49-.02,1.01-.12,1.48,0,2.16.53,5.08.73,5.04,3.56-.04,3.09-2.93,2.31-4.96,2.39-.49.02-.99,0-1.48,0Z"/><path class="d" d="m554.35,527.96c-.17,5.44-5.27,12.48-10.5,13.99-5.84,1.68-11.91-.79-15.46-5.39-2.36-3.06-1.23-7.34,2.44-8.91,6.28-2.69,12.63-5.3,19.61-5.32,3.72,0,4.38,2.51,3.92,5.63Zm-14.66,11.01c5.07-.08,6.8-3.69,9.33-6.16,1.62-1.58,2.06-3.77.84-5.43-1.01-1.37-2.94-1.79-4.95-.9-2.88,1.27-5.95,2.09-8.84,3.35-1.98.86-5.38.42-5.44,3.32-.06,3.09,2.96,3.94,5.55,4.74,1.42.44,2.73,1.21,3.51,1.08Z"/><path class="d" d="m481.42,534.04c-2.46-.45-5.21-.56-6.02-3.71-.35-1.38.77-1.74,1.81-1.46,2.65.7,6.11.54,7.12,3.65.65,2-1.82.97-2.9,1.52Z"/><path class="h" d="m479.57,240.61c.19,4.76-3.89,5.7-6.86,7.52-4.19,2.56-4.43,4.48-.93,7.99,5.73,5.75,12.37,4.06,18.88,2.28,6.17-1.69,12.37-1.95,18.58-.98,1.34.21,4.21.02,4.03,2.66-.13,1.91-2.3,2.12-3.77,2.79-5.69,2.59-11.31-.21-16.93-.43-6.72-.27-12.64,1.3-17.56,5.57-3.81,3.31-2.82,7.3,1.78,9.68,1.74.9,3.56,1.67,5.23,2.68,1.92,1.16,2.05,3.31,1.17,4.84-.78,1.36-2.63.89-3.96,0-2.18-1.47-4.61-1.45-7.09-1.31-3.85.22-5.57,2.37-5.68,6.04-.06,2-.04,3.99-.05,5.99-.04,6.8-1.78,9.2-8.35,10.72-3.42.8-6.78,1.5-9.18,4.34-1.53,1.82-3.06.73-4.4-.14-4.78-3.1-9.33-2.65-14.29-.09-3.15,1.62-7.06,4.13-9.75-1.35-.97-1.97-3.14-2.77-5.56-2.55-2.15.2-4.36.35-6.47.04-3.39-.5-3.92-3.4-3.74-6.03.24-3.39,2.96-1.96,4.52-1.43,1.67.57,3.37.82,4.87.45,3.66-.92,7.04-2.85,10.55.87,1.1,1.17,3.53-.02,4.46-1.94.91-1.88,2.19-3.24,4.27-3.81,10.8-2.98,15.76-11.46,19.53-20.97,1.12-2.82,2.71-5.27,5.11-6.98,6.07-4.3,6.58-9.95,4.86-16.58-1.67-6.41-2.15-12.93-.36-19.51.79-2.88,2.06-5.12,4.71-6.53,1.76-.94,3.38-2.19,5.21-2.91,7.4-2.89,12.65-7.67,15.74-15.24,2.4-5.89,9.42-6.76,14.01-2.33,2.4,2.32,1.79,6.65-1.46,9.11-3.43,2.6-7.32,4.16-11.58,4.96-3.95.74-7.65,2.04-8.5,6.78-2.13,2.91-1.67,5.88-.19,8.88.52,1.49.6,2.98-.07,4.45-1.35.48-.84,1.54-.76,2.46Z"/><path class="i" d="m480.39,233.7c-1.47-2.99-1.94-5.96.19-8.88.56,2.97,1.21,5.95-.19,8.88Z"/><path class="i" d="m479.57,240.61c-.08-.93-.59-1.99.76-2.46,1.49,1.36.82,2.05-.76,2.46Z"/><path class="e" d="m347.54,238.85c2.92-.51,4.82.42,4.04,4.23-.13.63-.13,1.37.05,1.98,1.79,6.09,2.32,11.48-5.52,13.93-1.81.56-2.1,2.69-.47,4.55,2.55,2.92,2.91,6.61,1.33,9.83-4.41,8.97-4.03,17.89-.18,26.72,1.42,3.25.35,4.23-2.45,4.63-4.05.58-6.65,2.23-6.97,6.87-.22,3.15-2.93,3.97-5.61,3.18-6.3-1.88-12.4-4.45-19.06-4.96-.55-.04-1.3-.59-1.52-1.1-.41-.95.53-1.47,1.17-1.87,1.85-1.15,3.91-1.73,6.1-1.85,1.13-.06,2.42.15,3.02-1.21.58-1.32-.16-2.26-1.12-2.99-3.91-3.01-2.67-5.13,1.3-6.29,3.31-.97,5.05-3.08,5.63-6.24.54-2.95,2.21-4.13,5.09-4.43,4.74-.49,6.61-3.28,5.78-7.98-.55-3.14-.57-6.28.12-9.42.21-.97.08-2.01.3-2.97.96-4.08-3.43-8.19-2.41-10.39,1.51-3.24,4.02-5.67,3.51-9.88-.38-3.12,2-4.25,7.86-4.34Z"/><path class="f" d="m395.55,113.68c.24,3.07-1.15,5.66-2.53,8.23-1.63,3.03-2.3,6.07-.37,9.23,1.79,2.92.94,4.62-2.21,5.89-5.47,2.2-9.01,6.93-13.28,10.72-6.68,5.94-14,10.97-22.29,14.52-2.4,1.03-4.27.88-6.34-.67-1.84-1.37-3.94-2.22-6.29-2.72-6.44-1.37-8.9-7.85-4.73-13,2.5-3.09,5.13-6.34,9.57-7.27,5.69-1.19,9.49-4.47,12.5-9.8,5.11-9.05,14.97-12.61,23.41-17.69,1.67-1,3.53-1.7,5.35-2.43,5.21-2.09,7.32-.62,7.22,4.99Zm-20.42,17.24c-4.76-.21-7.1,2.82-9.37,6.23-1.03,1.55-1.92,2.9-.18,4.21,1.4,1.06,3,1.02,4.45-.36,2.01-1.9,3.69-4.23,6.52-5.1,1.71-.53,2.28-1.78,2.02-3.45-.37-2.37-2.28-1.23-3.44-1.52Z"/><path class="e" d="m323.55,262.89c-.11,1.1.04,1.85-.26,2.3-4.38,6.58-9.71,12.46-13.94,19.19-1.19,1.89-3.99,3.41-6.82,1.08-2.35-1.94-5.05,1.05-7.54-.02,0-.46-.09-1.01.01-1.05,7.52-2.94,10.47-9.06,11.78-16.49.67-3.82,2.29-6.52,6.48-2.86,1.65,1.44,3.24,1.01,5,.02,1.52-.85,3.23-1.35,5.29-2.17Z"/><path class="e" d="m539.69,538.97c-.78.13-2.1-.64-3.51-1.08-2.59-.8-5.61-1.66-5.55-4.74.06-2.89,3.46-2.46,5.44-3.32,2.88-1.26,5.96-2.07,8.84-3.35,2-.89,3.94-.47,4.95.9,1.22,1.66.78,3.85-.84,5.43-2.52,2.47-4.26,6.08-9.33,6.16Z"/><path class="d" d="m375.12,130.92c1.16.3,3.06-.84,3.44,1.52.26,1.67-.31,2.93-2.02,3.45-2.82.87-4.51,3.2-6.52,5.1-1.45,1.37-3.05,1.42-4.45.36-1.74-1.31-.86-2.66.18-4.21,2.27-3.41,4.62-6.44,9.37-6.23Z"/></g></svg>