<svg xmlns="http://www.w3.org/2000/svg" width="89.584" height="88.878" viewBox="0 0 89.584 88.878"><defs><style>.a{opacity:0;}.b{fill:#ba00ff;stroke:#707070;}.c{fill:#fff;font-size:20px;font-family:BigNoodleTitling;}.d{fill:#fff;}.e,.g{fill:none;}.e{stroke:#000;stroke-linejoin:round;stroke-width:4px;}.f{stroke:none;}</style></defs><g transform="translate(-218.416 -134)"><g class="a" transform="translate(220 134)"><g class="b" transform="translate(88) rotate(90)"><rect class="f" width="88" height="88"/><rect class="g" x="0.5" y="0.5" width="87" height="87"/></g><text class="c" transform="translate(26 51)"><tspan x="0" y="0">88X88</tspan></text><rect class="d" width="66" height="66" transform="translate(11 11)"/></g><path class="e" d="M9.015,6.988A29.4,29.4,0,0,1,23.547,5.261a29.889,29.889,0,0,1,13.645,5.514,31.736,31.736,0,0,1,9.659,11.5,33.5,33.5,0,0,1-.008,29.755,31.733,31.733,0,0,1-9.665,11.5,29.885,29.885,0,0,1-13.647,5.506A29.4,29.4,0,0,1,9,67.3S27.37,56.057,27.37,37.147,9.015,6.988,9.015,6.988Z" fill="#fff" transform="translate(305.84 187.989) rotate(135)"/></g></svg>