<?xml version="1.0" encoding="UTF-8"?><svg id="b" xmlns="http://www.w3.org/2000/svg" height="116" width="516" viewBox="0 0 2758.43 557.81"><defs><style>.moon{fill:#f5bc4b;}</style></defs><g id="c"><g><g id="d"><g><path class="moon" d="m2194.38,539.16c-19.88-.85-38.88-2.85-58.88-2.85-10-3-21-4-31-6-9-5-19-7-29-10-3-1.5-6-3-9-4.53-11-5.47-22-11.47-31-18.47-8-9-15-19-22-29-1-2-1-5-1-7,12-33,7-68-3.14-100.67-.95-2.99-2.02-5.9-3.22-8.73-5.98-14.16-15.02-26.37-26.92-36.59-6.42-5.51-13.08-10.77-19.74-16-1.83-1.43-2.67-2.9-2.53-5.24.94-15.31,2.16-30.59,4.33-45.78.54-3.76,1.89-7.07,4.25-10,.9-1.12,1.88-2.18,2.85-3.24,13.64-14.91,21.84-32.48,25.66-52.21,1.46-7.56,2.24-15.17,1.9-22.87-.25-5.69.77-11.14,2.87-16.39,9.37-23.39,21.95-44.69,38.87-63.13,2.42-2.64,4.92-5.21,7.52-7.72,10.28-9.42,20.28-16.42,30.28-24.42,8-4,15-10,24-12,8-5,18-5,27-9,3.17-.83,6.36-1.56,9.57-2.19,3.21-.64,6.44-1.19,9.69-1.7,33.74-6.11,69.74-8.11,102.74,3.89,5,1,10,3,16,3,2,1,4,3,6,3,5-1,9,1,13,2,12,5,23,11,33.96,18.43,2.26,1.75,4.44,3.62,6.51,5.63,2.48,2.04,4.87,4.15,7.18,6.34,11.54,10.95,20.94,23.85,28.14,38.72,2.64,5.46,4.97,11.07,7.31,16.67,4.07,9.72,8.28,19.39,12,29.24,5.3,14.06,8.73,28.7,12.49,43.23,2.6,10.05,4.78,20.2,6.15,30.5,1.77,13.3,3.32,26.63,4.21,40.02.54,8.16-.15,16.29-1.03,24.4-.71,6.51-1.53,13.01-2.45,19.49-1.32,9.33-2.59,18.66-4.21,27.94-2.39,13.68-5.07,27.31-8.25,40.83-3.48,14.82-8.03,29.25-13.97,43.22-1.19,2.79-2.43,5.57-3.73,8.33-1.65,3.51-3.72,7.02-5.51,10.64-2.79,3.38-2.79,7.38-3.79,11.38-2,2-3,4-3,7-8,12-16,24-26,35-14,12-29,22-45,31-24,10-50,16-76.21,16.17-4.64.16-9.27.1-13.9-.32Zm-23.17-272.37c0,16.78-.05,33.56.04,50.34.02,3.66.36,7.33.85,10.96.46,3.48.98,6.95,1.51,10.42,2.9,4.79-1.1,16.79,7.9,15.79,4-5,3-11,4.89-16.72.35-3.33.56-6.68.58-10.04.04-5.75.09-11.5.18-17.26.02-1.43-.22-3.11.43-4.24,1.53-2.67,1.39-5.55,1.7-8.37.39-3.49.4-7.02.84-10.51,1.33-10.56.21-21.06-.7-31.56-.66-7.63-1.69-15.24-2.34-22.87-.95-11.14-2.17-22.25-4.04-33.27-.27-1.57-.56-3.17-1.11-4.65-.59-1.59-1.86-2.55-3.66-2.64-1.93-.1-3.44.71-4.24,2.49-.38.86-.61,1.81-.78,2.75-1.31,7.4-2.11,14.85-2.07,22.39.07,15.66.02,31.32.02,46.98Z"/><path class="moon" d="m681.94,294.7c-.2,20.3-.22,40.6-.66,60.89-.26,11.81-1.11,23.61-2.19,35.39-1.39,15.11-2.7,30.23-3.31,45.41-.27,6.69-1.09,13.37-1.95,20.02-.53,4.04-1.1,8.06-1.82,12.07-3.51,21.84-16.51,41.84-34.51,54.84-6,3-12,4-18,7-8,1-17,2-25,3-7-2-15,1-22.48-3.68-2.84-.93-5.62-2.06-8.34-3.38-2.72-1.32-5.37-2.83-7.96-4.54-2.27-1.49-4.57-2.94-6.79-4.5-2.89-2.04-5.55-4.35-7.62-7.24-1.69-2.37-3.69-4.42-6.05-6.1-3.65-2.6-5.97-6.2-7.7-10.2-1.79-4.13-3.07-8.45-3.07-12.97.01-8.15.04-16.3.43-24.43.5-10.71.74-21.4-.08-32.09-.44-5.73-.75-11.48-1.26-17.21-.24-2.7-.76-5.37-1.25-8.04-.17-.93-.48-1.92-1.03-2.65-.41-.55-1.32-1.03-1.98-1-.65.03-1.65.63-1.83,1.19-.48,1.5-.73,3.1-.83,4.68-.36,5.9-.72,11.8-.9,17.71-.42,14.05-.91,28.11-1.01,42.17-.06,8.86-1.29,17.52-3.15,26.11-1.57,7.24-5.58,13.24-10.85,18.31-12.89,12.39-27.64,21.64-45.25,25.78-6.38,1.5-12.87,2.38-19.45,2.41-6.71.03-13.4.19-20.12.68-8.53.62-17,.51-25.35-.52-2.78-.34-5.55-.79-8.31-1.34-11.77-1.13-21.77-7.13-31.77-12.13-12-6-19-17-26-27-2-6,0-12,1.91-16.95,1.41-3.16,3.23-6.27,5.36-9.5,1.71-3.19,3.37-6.43,4.96-9.71,12.77-26.23,21.59-54.96,20.87-83.45-.14-3.15-.42-6.27-.84-9.35-1.26-9.25-3.79-18.2-7.53-26.85-7.05-16.3-15.25-32.01-24.94-46.91-1.61-2.47-2.59-4.92-2.66-7.98-.1-4.62-.84-9.22-1.18-13.84-.24-3.34-.25-6.7-.4-10.05-.17-3.75,1.28-6.81,3.79-9.51,1.74-1.87,3.42-3.8,5.03-5.8,8.25-10.25,14.05-21.69,16.57-34.67.64-3.29,1.22-6.62,1.36-9.96.21-5.02.26-10.03.11-15.02-.16-4.99-.52-9.97-1.13-14.95-1.28-22.51-13.28-42.51-22.28-63.51,1-15,16-25,25-36,17-13,36-26,57.07-30.64,3.82-.66,7.7-.89,11.67-.58,8.62.67,17.15,1.96,25.3,4.95,11.43,4.18,20.54,11.57,28.15,20.9,8.96,10.99,15.79,23.22,20.94,36.41,5.02,12.83,8.37,26.13,11.41,39.53.49,2.18.88,4.39,1.42,6.55,1.68,6.69,2.58,13.44,2.64,20.37.04,4.93.8,9.86,1.32,14.78.99,9.37,2.51,18.69,2.45,28.15-.02,2.88-.08,5.75-.13,8.63-.04,2.31.53,4.43,1.91,6.3.6.82,1.43,1.34,2.48,1.04,1-.28,1.63-1.02,1.72-2.06.14-1.59.29-3.19.25-4.78-.1-3.37-.3-7.89-.89-20.58-.48-10.37-1.42-20.71-1.44-31.12-.02-8.3-.48-16.62-1.27-24.88-1.49-15.48.89-30.23,7.14-44.43,9.34-21.23,23.33-38.78,41.73-52.87,8.03-6.15,17.23-9.64,27.03-11.7,4.85-1.02,9.76-1.9,14.72-1.68,5.91.26,11.76,1.14,17.42,2.98,9.81,3.2,18.79,8.04,27.16,13.99,5.58,3.97,9.58,9.34,12.81,15.32,3.43,6.37,5.7,13.19,7.46,20.17,2.61,10.39,4.22,20.95,5.18,31.63.99,11,1.01,22.02,1.15,33.04.12,9.12.99,18.18,1.94,27.24.63,6.03,1.12,12.08,1.6,18.13.44,5.57.81,11.15,1.17,16.73.21,3.19.4,6.37.48,9.57.4,16.29.83,32.59,1.12,48.88.15,8.47.03,16.94.03,25.41.1,0,.2,0,.31,0Z"/><path class="moon" d="m860.51,449.31c-1.11-.87-1.78-1.3-2.34-1.85-3.86-3.82-7.75-7.63-11.54-11.52-4.7-4.83-8.87-10.08-12.15-15.99-.38-.69-.79-1.4-1.31-1.99-.99-1.11-3.06-.85-3.67.49-.46,1.01-.76,2.1-1,3.18-1.44,6.38-2.99,12.74-4.23,19.17-.5,2.57-1.07,5.1-1.72,7.62s-1.39,4.99-2.21,7.45c-4.83,16.46-15.83,29.46-23.83,44.46-12,12-24,25-40,32-13,2-27,4-40,3-6-2-12,0-18-3h-4c-11-3-21-8-27-18-1-3-1-6-2-9,2-2,4-5,5.15-8,1.46-2.82,2.7-5.76,3.79-8.78,2.19-6.04,3.82-12.37,5.59-18.53.53-2.56,1.03-5.12,1.5-7.69,2.34-12.83,3.87-25.77,4.45-38.83.48-10.85,1.18-21.7,1.83-32.54.27-4.46.6-8.93,1.01-13.38.98-10.52.63-21.08.89-31.62.36-14.86.88-29.71,1.32-44.56.06-1.92.1-3.83.1-5.75,0-10.07-.03-20.14.01-30.21.03-8.48-.42-16.93-1.17-25.37-.18-2.07-.27-4.15-.24-6.23.15-9.45-.72-18.83-1.77-28.2-.5-4.44-.74-8.92-1.06-13.38-.95-13.55-1.93-27.09-2.81-40.64-.51-7.81-1.02-15.63-1.23-23.45-.38-14.1-2.17-28.01-5.28-41.76-.6-2.65-1.18-5.3-1.8-7.94s-1.27-5.28-2-7.89c-1.3-2.24.7-4.24,1.7-6.24,7-5,13-10,21-14,9-3,19-6,29-6,13,2,27,0,40,4s23,12,34,19c10,11,18,22,26,33.79,1.65,2.81,3.08,5.73,4.32,8.8,9.56,23.69,19.34,47.29,27.39,71.56.65,1.97,1.37,3.92,2.12,5.85,1.52,3.88,2.77,7.78,3.08,12.01.18,2.52.95,5.01,1.66,7.46.35,1.2,1.06,2.32,1.77,3.36.57.83,1.51,1.21,2.53.89.99-.31,1.6-1.04,1.61-2.12,0-.8.01-1.6-.11-2.39-1.64-10.57-3.21-21.15-5-31.7-1.2-7.04-1.27-13.88,1.07-20.79,2.92-8.62,5.3-17.42,8.87-25.81,1.44-3.38,2.93-6.75,4.72-9.95,10.97-18.97,22.97-36.97,38.97-52.97,18-15,44-15,66-9,3,3,7,3,10,4,12,9,21,21,27.18,35.47,1.27,2.79,2.46,5.61,3.59,8.43.9,2.36,1.76,4.74,2.57,7.13,3.25,9.56,5.79,19.35,7.87,29.26,1.67,7.97,3.16,15.98,4.48,24.01,1.33,8.03,2.53,16.11,3.88,24.31,16.43,98.39,13.43,201.39-3.56,299.04-1.45,3.27-3.05,6.46-4.83,9.58-7.18,10.78-15.18,20.78-27.18,26.78-17,5-35,3-51-3-21-8-33-28-40.14-47.84-1.12-2.69-2.16-5.42-3.13-8.17-1.93-5.51-3.56-11.14-4.84-16.92-1.43-6.47-2.88-12.93-4.33-19.4-5.57-6.67.43-23.67-9.77-25.48-1.82,2-3.74,4.1-4.82,6.51-4.59,10.23-11.52,18.74-18.99,26.91-2.8,3.07-5.45,6.28-8.18,9.41-.82.94-1.71,1.82-2.81,2.98Z"/><path class="moon" d="m1684.18,501.76c.32-2.45,2.32-4.45,3.32-6.45,0-9,0-19,2-28,1-17-2-33-7-49-2-2-3-4-3-7l-6-9v-3c-4-4-8-8-11-13-14-12-27-25-36-41-8-20-9-42-7.84-62.51.22-2.83.5-5.66.84-8.49,6-30,8-60,16.47-89.2,1.1-3.77,2.28-7.52,3.55-11.24,6.33-18.6,14.69-36.48,25.01-53.26,4.12-6.93,8.57-13.66,13.38-20.17,2.4-3.26,4.9-6.46,7.48-9.6,2.19-2.75,4.45-5.44,6.78-8.06s4.73-5.18,7.18-7.68c9.14-10.78,21.14-17.78,31.14-27.78,4-1,8-4,12-5,5-3,10-6,16-8,6-1,11-1,16-4,13-4,27-3,40-7,27,0,54,6,80,13,5,2,10,6,15.86,7.49,2.6,1.35,5.16,2.78,7.66,4.28,7.52,4.52,14.56,9.8,20.64,16.37,2.92,2.99,5.7,6.17,8.33,9.57,2.49,2.59,4.98,5.18,7.42,7.82,7.98,8.64,14.23,18.45,19.41,28.97,5.69,11.57,9.45,23.75,10.83,36.56,1.7,15.7,1.07,31.25-3.95,46.43-4.72,14.26-12.52,26.57-23.47,36.78-7.48,6.98-15.35,13.53-23.08,20.22-8.95,7.75-19.53,12.64-30.36,17.07-9.49,3.88-19.28,6.73-29.4,8.38-3.15.51-6.33.82-9.5,1.22-1.48.19-2.75.77-3.76,1.89-.92,1.03-.64,2.74.62,3.21.88.33,1.84.51,2.78.57,3.19.18,6.4.16,9.58.41,22.3,1.71,43.92,6.19,64.16,16.09,10.7,5.23,20.48,11.83,29.13,20.02,4.64,4.39,9.16,8.93,13.49,13.62,2.78,3.01,5.25,6.24,7.44,9.65,2.19,3.41,4.1,7.02,5.75,10.79,3.39,5.59,4.39,12.59,7.39,18.59,7,22,5,46,5,69-4,14-11,26-20,38-1,1-2,1-3,2-9.03,12.5-20.47,21.14-32.64,28.94-2.44,1.56-4.9,3.08-7.38,4.59-2.98,1.47-5.98,3.47-8.98,5.47h-3c-4,2-8,5-13,5-4,2-7,5-11,6-23,7-46,10-69,13-11.25,0-21.94,0-32.91-.42-3.66-.14-7.34-.33-11.1-.58-18-4-36-7-53-12-17-7-33-17-49.71-24.36-2.57-1.26-5.1-2.86-7.61-5.2Z"/><path class="moon" d="m2352.25,69.43c.67-.98,1.18-1.97,1.92-2.77,7.33-7.96,15.62-14.63,25.71-18.84,2.65-1.11,5.3-2.22,7.91-3.43,10.25-4.75,21.1-6,32.25-5.75,24.23.56,44.02,10.78,60.7,27.75,8.69,8.84,15.54,19.05,21.6,29.82,6.67,11.84,12.37,24.16,18.15,36.45,5.44,11.56,10.98,23.07,16.43,34.63,1.29,2.74,2.35,5.59,3.53,8.39.43,1.03.78,2.13,1.42,3.02.4.57,1.23,1.01,1.94,1.14,1.07.19,1.75-.58,2.21-1.49.86-1.66.78-3.34.28-5.11-1.47-5.29-1.61-10.71-1.47-16.16.15-5.96,1.32-11.74,2.99-17.42,7.68-26.18,20.33-49.56,39.17-69.48,14.03-14.83,30.88-24.62,50.89-28.83,6.53-1.37,13.03-.79,19.45.95,13.55,3.67,24.83,10.89,33.6,21.82,9.77,12.18,17.58,25.44,22.19,40.52,4.9,16.03,10.29,31.91,15.27,47.91,4.71,15.12,7.82,30.6,10.28,46.24,3.43,21.85,4.41,43.85,4.61,65.91.07,7.84.53,15.64,1.73,23.4.22,1.41.2,2.87.2,4.3.01,11.67.12,23.34-.05,35-.06,3.96-.79,7.93-1.3,11.88-.62,4.78-.75,9.58-.12,14.34,1.13,8.61.87,17.23.22,25.84-.65,8.6-1.67,17.17-2.38,25.77-1.14,13.87-3.34,27.57-6.37,41.15-2.75,12.33-6.08,24.48-10.92,36.18-1.4,3.39-2.94,6.73-4.45,10.08-4,8.87-10.34,15.68-18.49,20.87-6.51,4.14-13.5,7.28-20.91,9.38-11.1,3.15-22.14,2.52-32.99-1.23-11.31-3.9-21.32-10.17-30.59-17.6-2.33-1.87-4.26-4.33-6.02-6.78-3.83-5.34-6.86-11.17-9.17-17.32-6.19-16.45-11.87-33.06-15.63-50.26-.75-3.42-1.13-6.92-1.67-10.39-.39-2.52-.74-5.05-1.16-7.57-.1-.62-.36-1.22-.59-1.82-1.65-4.42-4.69-5.06-7.91-1.63-.98,1.05-1.84,2.21-2.73,3.34-6.83,8.66-13.61,17.36-20.49,25.99-2.49,3.12-5.17,6.09-7.84,9.07-.82.92-1.87,1.63-2.75,2.37-.54-.33-.88-.43-1.07-.66-6.86-8.19-14.54-15.76-19.65-25.31-1.3-2.44-3.17-4.41-5.25-6.18-2.35-2-4.12-1.53-4.92,1.38-.72,2.61-1.21,5.29-1.81,7.94-1.63,7.16-2.97,14.4-4.99,21.45-2.77,9.72-7.33,18.72-12.53,27.38-7.76,12.92-16.79,24.91-26.74,36.21-3.9,4.44-7.82,8.9-12.08,12.99-8.45,8.1-18.32,13.84-29.82,16.55-3.73.88-7.49,1.56-11.36,1.57-3.2,0-6.38.03-9.57-.07-9.8.02-19.2-2.46-27.65-6.83-2.82-1.46-5.53-3.12-8.11-4.98-5.84-5.14-12.84-8.14-14.84-16.14-5-3-5-8-6-13,1-6,2-13,8-16,6-12,14-23,19.21-35.63,1.18-2.46,2.32-4.94,3.43-7.46,1.1-2.47,2.19-4.95,3.26-7.43,5.56-12.92,10.68-25.99,14.33-39.6,2.49-9.26,4.28-18.66,6.03-28.09,1.68-9.1,3.5-18.19,5.42-27.24,2.22-10.48,3.78-21.04,4.66-31.73.86-10.51,1.71-21.01,1.89-31.57.24-13.94-.64-27.76-2.74-41.55-1.94-12.79-4.04-25.54-6.7-38.2-3.76-17.85-9.03-35.25-15.18-52.4-4.2-11.72-8.59-23.38-12.89-35.07-1.99-5.42-4.67-10.5-7.51-15.51-4.16-7.37-8.3-14.76-12.43-22.15-.38-.68-.66-1.43-1.04-2.26Z"/><path class="moon" d="m183.43,542.12c-9.93-.81-20.93,1.19-30.93,1.19-3-2-7-2-11-3-2,0-3-1-5-2-2,1-5-1-7,1l-3-3c-7-1-14-2-20.88-4.12-3.44-1.06-6.84-2.28-10.2-3.61-3.36-1.33-6.67-2.77-9.92-4.27-12-7-24-15-34-25-1.75-2-3.44-4.12-5.08-6.33-4.92-6.61-9.42-13.92-13.92-20.67,0-3-8-12-8-13-2-6-2.75-12-4-18-.97-3.78-1.09-9.59-1.88-13.43-.79-3.84-1.49-7.7-2.12-11.57,0-12,0-23,1-35,1-6,4-12,4-19,2-5,5-9,6-14,7-11,16-21,28-27h3c15-9,35-9,52-7,17,3,34,7,49,16,2,0,4,1,5-1-4-11-15-16-25-20-3.17-.67-6.33-1.39-9.5-2.12-15.83-3.63-31.67-7.38-47.5-4.88-4,0-8,1-12.09-1.06-1.91-.94-2.91-1.94-4.91-2.94-10-20-23-37-30-59-8-24-11-48-6-74,1-7,3-14,6-20,7-9,9-20,16-29,23-32,56-56,89.18-77.59,3.47-1.65,6.91-2.94,10.37-4.13,3.46-1.19,6.95-2.28,10.45-3.28,8-1,16-4,24-4h27c16,3,32,7,47,15,28,16,47,42,61,70,5,14,11,27,14,42,3,13,3,26,3.08,39.44-.28,4.51-.81,8.89-1.62,13.09-7.23,37.84-36.08,61.6-93.62,41.42-16.74-2.98-4.14,7.89,3.88,9.31,49.42,12.07,83.58,47.44,95.7,89.77,1.21,4.23,2.2,8.54,2.98,12.9,6.4,30.71,1.42,62.72-12.09,90.72-1.69,3.5-3.51,6.94-5.46,10.31-1.21,2.26-2.56,4.45-3.99,6.59-7.86,11.44-16.86,21.44-26.86,30.44-6,2-9,7-14,10-1,0-2,0-3,1-24,20-55,26-84.02,31.94-4.1.46-8.13.76-12.05.87Z"/><path class="moon" d="m1210.84,533.62c-34.33-.31-69.33-1.31-103.66-6.16-6.8-1.19-13.6-2.63-20.38-4.33-4.04-1.08-8.06-2.23-12.07-3.43-4.01-1.2-8.01-2.46-11.99-3.75-2.23-1.63-4.23-2.63-7.23-2.63-3-3-7-4-10-7-1-1,2-2,1.28-3.21,1.57-2.59,2.97-5.25,4.19-7.98,3.68-8.16,5.85-16.88,6.74-26.05,4.79-93.76,14.79-191.76-3.77-285.07-1.43-6.67-2.8-13.31-4.18-19.96-3.45-16.61-6.95-33.2-10.41-49.81-.69-3.32-1.38-6.64-2.07-9.96.22-4.96-3.78-7.96-4.78-12.96v-4c19-15,41-27,63.64-33.26,4.62-1.29,9.27-2.43,13.94-3.51,12.76-2.96,25.62-5.4,38.63-6.93,8.25-.97,16.48-2.02,24.75-2.78,7.64-.7,15.3-1.43,22.96-1.49,8.3-.06,16.6.37,24.88,1.34,16.87,1.98,33.31,5.88,49.53,10.75,7.25,2.18,14.28,4.89,21.07,8.18,2.26,1.1,4.5,2.25,6.71,3.48,12.9,6.22,21.9,17.22,30.08,28.06,1.65,2.2,3.25,4.44,4.79,6.73,1.54,2.29,3.02,4.62,4.42,7,7.01,11.84,11.3,24.7,13.47,38.19,2.76,17.09-1.85,32.27-13,45.48-4.46,5.28-9.52,9.94-15.11,13.98-16.98,12.3-35.38,21.69-55.9,26.54-7.97,1.88-16.08,2.57-24.27,2.04-3.35-.22-6.71-.31-10.06-.56-6.05-.44-12.1-.96-18.15-1.44-.95-.08-1.91-.24-2.85-.2-1.22.05-2.23.99-2.34,2.02-.13,1.09.44,1.87,1.33,2.33.99.51,2.04.92,3.1,1.27,7.3,2.41,14.8,4.13,22.43,4.81,14.08,1.26,27.25,5.25,39.47,12.29,6.51,3.75,12.91,7.68,19.35,11.54,9.72,5.82,15.03,14.69,16.86,25.57,3.17,18.89-2.99,34.35-18.26,45.92-9.13,6.91-19.62,11.32-30.47,14.79-8.84,2.83-17.99,4.32-27.13,5.78-2.04.33-4.1.68-6.08,1.26-.58.17-1.24,1.12-1.29,1.76-.06.63.44,1.61.99,1.92.93.54,2.08.83,3.16.96,11.76,1.38,23.29,3.85,34.73,6.84,17.66,4.6,33.93,12.18,48.89,22.59,6.72,4.67,12.77,10.12,18.27,16.2,2.14,2.37,4.29,4.75,6.59,6.97,11.87,10.57,14.87,26.57,16.87,42.57-1,7-2,13-4,20-7,14-19,24-31.29,33.56-3.12,2.04-6.35,3.91-9.67,5.62-23.26,11.94-51.06,15.96-76.78,16.27-9.08.59-18.1,1.15-25.93,1.86Z"/><path class="moon" d="m1453.03,547.99c-27.53-2.68-56.53,1.32-83.53-11.68h-3c-2-3-5-3-6-6-1-1-2-1-3-2-9-10-10-23-6-35,6-7,11-15,14-24,4-24-3-49-20.93-66.13-2.87-2.84-5.02-5.95-6.53-9.35-1.51-3.4-2.38-7.09-2.71-11.1-.74-9.07-2.02-18.09-3.04-27.13-.45-3.97-.99-7.93-1.26-11.91-.8-11.79-1.56-23.59-2.2-35.39-.92-16.91-1.72-33.83-2.59-50.74-.4-7.82-.88-15.63-1.25-23.44-.26-5.61.45-11.17,1.1-16.72.46-3.94,2.15-7.35,4.84-10.23,1.96-2.1,4.05-4.08,6.18-6.02,4.27-3.89,8.2-8.08,11.62-12.73,6.07-8.26,10.1-17.43,11.49-27.58,1.13-8.28.65-16.57-1.06-24.78-2.23-10.7-6.01-20.7-11.02-30.16-1.25-2.37-2.58-4.7-3.98-7-3.64-4.58-7.64-10.58-9.64-16.58,7-16,20-28,36-36l3-3c3.5-1.25,7-2.5,10.52-3.66,26.48-11.34,53.48-.34,77.48,8.66,6,6,14,11,20,18,12,21,16,45,21.69,67.83.86,3.99,1.69,7.98,2.49,11.97,2.4,11.97,4.52,23.95,6.32,35.94,1.65,10.81,3.05,21.62,4.22,32.6.36,3.72.72,7.45,1.08,11.19.36,3.74.71,7.49,1.07,11.25,3.14,23.23,4.14,47.23,3.14,70.23-1.5,8.25-2.44,16.5-3.23,24.75-.27,2.75-.52,5.5-.77,8.25-2,5-2,11-6,15-5,1-11,1-14,6,0,1,1,3,3,3,3,0,6-1,8-3,12-3,25-6,38-7,4.16,0,8.33.11,12.47.33,23.53,1.67,48.53,5.67,71.53,14.67,5,4,11,5,15,10,1,0,2,1,3,1,11,12,25,27,26,44,1,1,2,2,3,2,4,20,5,39,2,59-1,1-2,2-2,3-4,20-23,29-38,40h-3c-4,3-9,6-13.85,5.95-4.56.77-8.95,1.81-13.35,2.92s-8.8,2.28-13.38,3.32c-3.05.69-6.17,1.31-9.42,1.81-3.5.5-7.06,1-10.66,1.49-12.34,2.51-25.34,2.51-37.34,4.51-5-2-9-1-14-1-19,3-37,0-56,0-5,2-10,1-15.45.85,0-.06-.01-.12-.02-.17Z"/></g></g><path d="m2196.12,257.54c-2.56-21.38-3.3-45.64-8.1-65-16.97-22.7-25.77,13.84-23.33,27.3,6.24,28.73-16.67,140.48,20.19,140.63,14.41-30.52,10.8-69.51,11.23-102.93Z"/><path d="m2758.43,275.15c-4.3-80.81-10.56-187.16-76.7-241.24-64.21-38.01-128.75,31.57-147.36,91.26-27.02-83.76-116.78-145.47-190.96-73.25-80.32-81.61-292.03-71.31-352.26,61.76-40.39-118.31-218.32-131.98-286.09-68.41-68.62,58.1-102.9,155.81-104.1,242.99-.56,54.43,23.6,53.93-40.52,50.07-29.48,2.67-26.64-2.22-26.07-29.04-2.21-106.31-.48-333.19-162.63-284.4-80.72,51.11-15.4,37.05-104.76,7.43-77.01-21.19-175.48-10.37-241.22,37.81-17.4-27.82-49.56-37.04-83.62-33.69-46.92,9.51-70.93,56.89-86.96,94.37-15.51-43.54-44.19-90.48-94.38-100.48-31.26-1.99-61.97-6.55-87.98,12.89-5.69,8-13.93-10.36-21.05-13.32-56.31-40.9-126.17,4-147.23,61.88-33.62-96.09-133.1-87.21-186.71-15.31C185.3-105.02-77.04,123.05,41.83,289.15c32.14,27.59-59.33,18.76-38.8,148.2,27.22,92.55,87.73,122.09,207.99,112.43,19.19-4.05,67.11-14.11,98.25-45.35,3.38,4.42,8.41,8.3,13.33,12.13,29.87,28.91,72.53,33.67,112.66,29.91,32.84-.73,62.42-15.76,82.01-41.46,21.54,32.72,62.78,45.73,100.4,38.22,6.84-2.55,14.89-4.06,21.5-7.13,26.19-23.31,22.95,5.99,60.48,9.18,68.79,14.02,120.95-34.16,137.29-98.68,19.69,28.27,37.75,10.09,52.86-11.07,8.36,52.19,39.78,108.19,101.96,103.77,29.23,2.01,39.27-30.2,64.18-11.99,82.77,23.57,182.69,32.41,272.28-7.33,8.25-6.79,12.69,14.87,22.47,18.19,40.62,28.29,90.65,16.36,136.71,19.64,67.1-.24,136.89,1.24,193.48-41.73,71.67,45.23,162.13,52.61,241.07,22.86,24.85-5.5,37.77-21.87,58.42-32.9,40.33-57.29,13.66,33.49,165.64,46.26,69.47,5.51,129.87,1.61,183.84-38.6,67.33,88.75,162.08,19.05,188.24-68.21,17.71,31.15,38.71,10.19,52.6-10.8,10.05,78.06,87.35,142.5,153.84,74.97,42.6-67.49,32.21-158.11,33.9-234.51ZM261.32,512.63c-55.69,44.43-185.63,12.41-209.43-22.55C-.57,430.92,18.1,282.36,128.45,324.78c23.77,11.31,62.24,13.26,21.76-16.81-12.19-8.54-71.5-7.12-80.61-16.25-40.83-57.72-50.45-131.61-.21-187.29,27.75-35.99,91.34-85.24,143.48-69.82,134.62,22.71,177.07,254.2,30.93,207.34-24.29-5.18-18.49,19.05.73,21.91,130.96,32.46,125.39,197.53,16.78,248.78Zm47.18-243.32c0,2.5.89,3.09-1,4-3-1-3.04.59-6-1-5.58-3-3.87-2.72-9-4-8-2-6.66-5.82,4-5,13,1,10-4,12-3v9Zm325.63,248.41c-28.21,13.04-65.62,12.9-87.53-11.53-35.54-20.75,3.71-103.58-27.59-117.42-24.2,10.81,3.52,91.15-22.77,111.98-39.96,37.59-115.5,38.35-155.68,3.29-14.96-12.18-7.75-28,1.25-41.87,8.52-15.21,11.62-27.67,16.09-41.6,28.61-89.25-56.32-133.85-23.96-173.07,57.12-73.29-25.2-138.61,6.57-160.12,72.55-81.28,143.28-37.52,157.66,60.65,6.59,12.44-.53,92.61,16.71,82.8,21.53-35.06-7.84-91.69,11.71-130.34,20.8-62.34,114.12-93.28,136.07-14.82,13.15,101.05,15.48,202.52,9.97,304.73-5.62,43.53,3.26,98.42-38.48,127.34Zm325.69-2.48c-29.36-9.72-42.63-56.93-48.42-87.68-4.4-11.05-2.85-25.57-13.21-35.14,0,0-4.79,4.79-4.79,4.79-1.17-.26-2.38,1.27-3.01,2.01-9.6,13.91-18.2,29.2-30.37,40.95-11.8-6.89-27.66-47.33-37.89-19.98-7.54,40.7-25.16,85.55-66.6,104.89-33.93,5.76-68.52,8.7-82.64-16.34,18.01-35.69,19.62-77.85,21.39-117.42,3.59-65.61,5.55-131.21-.71-196.71-3.78-36.48-1.93-73.53-9.65-109.66-1.24-9.49-8.14-16.69,4.51-22.33,32.48-20.57,77.16-13.78,106.74,9.61,35.07,38.4,48.69,87.29,62.48,135.8,1.38,11.25,18.13,13.27,18.82.96-.93-11.69-3.46-23.49-5.2-35.25,6.89-110.25,132.58-177.29,158.06-31.8,10.04,65.12,68.72,422.77-69.52,373.31Zm267.73,10.8c-36.64,1.09-167.17,3.64-170.66-28.25,24.16-132.56,20.28-277.31-17.89-407.31,69.17-51.63,226.47-69.66,284.49,4.56,18.39,24.31,33.59,62.77,9.92,89.31-59.49,65.02-122.11,23.9-130.18,45.82.28,19.4,64.29,13.11,88.8,38.59,21.23,13.1,18.28,47.44-1.98,60.72-14.5,17.3-61.71,13.07-67.53,28.19-1.74,15.76,67.37,13.91,90.54,38.24,94.5,69.56-2.37,135.69-85.51,130.13Zm87.49-189.17c.67,11.96,2.06,24.22,3.69,36.31-9.93-6.11-20.97-11.29-33.8-15.87,10.85-4.88,21.9-11.08,30.11-20.44Zm-4.43-81.2c-7.05-6.44-16.16-11.27-24.41-16.01,24.94-11.77,24.5-11.75,24.41,16.01Zm359.83,235.23c-38.97,67.48-202.48,49.39-272.26,47.09-47.92-9.96-50.99-26.84-26.28-67.57,9.31-54.25-39.03-70.72-34.4-127.17-1.83-43.53-6.89-81.39-5.11-123.99,42.63-47.89,46.45-81.39,9.15-136.7,24.83-40.9,71.06-53.99,119.36-26.34,38.72,51.4,48.23,114.22,50.22,177.69-2.53,31.76,17.38,103.78-14.53,118.59-6.17,3.27-4.24,11.98-4.6,17.31,15.54.4,38.09-9.23,56.38-9,68.43-8.6,145.22,46.05,122.07,130.1Zm269.57,18.26c-76.35,40.77-172.42,36.44-245.71-8.44.95-23.93,4.17-58.27-5.59-83.28-8.84-23.85-28.21-40.95-45.26-58.36-36.03-51.7-12.13-127.51,2.21-182.93,17.63-56.17,61.89-111.83,115.03-135.73,92.01-24.97,201.9,7.35,217.49,107.65,8.28,53.88-31.05,93.73-76.85,113.79-13.41,10.44-45.71.92-46.99,21,2.2,8.51,12.64,6.48,19.28,7.17,36.21,3.14,64.6,11.77,89.32,34.35,57.69,50.74,50.28,150.71-22.94,184.78Zm1.7-244.77c-.09,18.89-2.48,20.09-19.43,12.25,6.85-3.64,13.32-7.67,19.43-12.25Zm313,263.67c-55.52,11.53-145.98,3.21-191.13-21.15-19.58-9.31-36.51-24.56-44.58-44.49,15.68-43.46,5.85-117.54-35.55-152.04-27.62-14.91-20.71-39.42-12.87-68.01,20.41-20.87,33.05-52.83,31.86-82.69,27.82-161.79,311.42-180.92,358.16-36.08,46.27,93.21,40.02,211.56,1.3,301.92-22.37,63.98-60.66,84.25-107.19,102.53Zm361.37-34.57c-15.25-24.48-21.87-56.07-27.41-85.86-14.26-25.01-31.47,16.36-42.29,25.92-9.88,15.5-17.81-16.06-27.26-21.61-22.9-15.12-18.11,46.38-34.03,59.74-21.84,40.01-68.8,87.31-115.99,53.47-39.11-24.87,3.73-49.12,11.98-80.27,45.33-102.43,47.48-221.91,2.51-326.22-5.49-17.55-14.9-32.81-23.74-48.54,17.63-17.15,34.89-24.84,60.04-24.96,86.89-6.28,105.44,169.55,131.89,136.2-12.37-91.66,112.5-203.43,155.09-74.79,38.42,69.57,75.43,521.05-90.79,386.95Z"/></g></g></svg>