<svg width="48" height="48" viewBox="0 0 48 48" fill="none" xmlns="http://www.w3.org/2000/svg">
<path d="M45.8 16.4V16.1L40.8 5.2C40.4868 4.48201 39.7832 4.01298 39 4H8.99998C8.21675 4.01298 7.5132 4.48202 7.19998 5.2L2.29998 16.1V16.4C1.80903 18.1946 2.17843 20.1155 3.29998 21.6C4.04944 22.4924 5.01273 23.1805 6.09998 23.6L6.09998 41C6.07174 41.804 6.37873 42.5835 6.94758 43.1524C7.51642 43.7212 8.296 44.0282 9.09998 44L39 44C39.8039 44.0282 40.5835 43.7212 41.1524 43.1524C41.7212 42.5835 42.0282 41.804 42 41L42 23.6C43.0872 23.1805 44.0505 22.4924 44.8 21.6C45.9215 20.1155 46.2909 18.1946 45.8 16.4ZM5.99998 17.6L10.3 8H37.7L42 17.6C42.0863 18.1341 41.9408 18.6798 41.6 19.1C41.1922 19.6867 40.514 20.0258 39.8 20H38.9C38.3163 20.0271 37.7459 19.821 37.3144 19.427C36.8829 19.0331 36.6259 18.4837 36.6 17.9C36.6 16.7954 35.7045 15.9 34.6 15.9C33.4954 15.9 32.6 16.7954 32.6 17.9C32.6006 18.4747 32.3657 19.0246 31.95 19.4214C31.5342 19.8183 30.974 20.0274 30.4 20H28.2C27.6259 20.0274 27.0657 19.8183 26.65 19.4214C26.2342 19.0246 25.9993 18.4747 26 17.9C26 16.7954 25.1045 15.9 24 15.9C22.8954 15.9 22 16.7954 22 17.9C22.0006 18.4747 21.7657 19.0246 21.35 19.4214C20.9342 19.8183 20.374 20.0274 19.8 20H17.6C17.0259 20.0274 16.4657 19.8183 16.05 19.4214C15.6342 19.0246 15.3993 18.4747 15.4 17.9C15.4 16.7954 14.5045 15.9 13.4 15.9C12.2954 15.9 11.4 16.7954 11.4 17.9C11.374 18.4837 11.117 19.0331 10.6855 19.427C10.2541 19.821 9.68361 20.0271 9.09998 20H8.19998C7.48594 20.0258 6.8078 19.6867 6.39998 19.1C6.05914 18.6798 5.91364 18.1341 5.99998 17.6ZM35 40V27H28V40H9.99998V23.9C11.2653 23.7793 12.4578 23.2532 13.4 22.4C14.5557 23.4316 16.0509 24.0012 17.6 24L19.8 24C21.3491 24.0012 22.8443 23.4316 24 22.4C25.1557 23.4316 26.6509 24.0012 28.2 24H30.4C31.9491 24.0012 33.4443 23.4316 34.6 22.4C35.5422 23.2532 36.7347 23.7793 38 23.9L38 40H35Z" fill="white"/>
<rect x="13" y="27" width="11" height="10" fill="white"/>
</svg>
