<svg xmlns="http://www.w3.org/2000/svg" width="25" height="24" viewBox="0 0 26 24"><defs><style>.c{fill:#819685;}</style></defs><g ><path class="c" d="M13.089,25.052a11.5,11.5,0,0,1,.182-1.7c.337-2.269.35-2.225-.409-1.372A9.468,9.468,0,0,1,6.8,25.018l-.489,0,.232-.4A10.365,10.365,0,0,1,9.122,22.1l.808-.511-1.515-.078a13.654,13.654,0,0,1-6.271-1.829,12.861,12.861,0,0,1-1.136-.7c-.129-.129,1.144-.551,2.379-.788a17.393,17.393,0,0,1,4.981.055,6.7,6.7,0,0,0,.988.176,6.668,6.668,0,0,0-.873-.737A18.9,18.9,0,0,1,2.679,9.3c-.321-.957-.406-1.366-.284-1.366A21.9,21.9,0,0,1,5.471,9.362a19.015,19.015,0,0,1,5.546,5.058c.4.565.7.912.66.771a15.505,15.505,0,0,1-.4-4.175A16.567,16.567,0,0,1,12.12,5.17a17.342,17.342,0,0,1,1.655-3.79,14.207,14.207,0,0,1,1.337,2.977A21.264,21.264,0,0,1,15.9,14.428c-.107.561-.195,1.074-.195,1.141a4.4,4.4,0,0,0,.725-.938,17.984,17.984,0,0,1,7.45-6.159c1.521-.659,1.469-.664,1.261.129a18.971,18.971,0,0,1-6.072,9.117,7.659,7.659,0,0,0-.875.748c.036,0,.43-.082.876-.184a13.024,13.024,0,0,1,6.089.163c1.471.386,1.5.433.687.954a13.585,13.585,0,0,1-6.83,2.114l-1.378.076.78.462a12.7,12.7,0,0,1,2.8,2.7c.136.254.114.271-.353.271a9.629,9.629,0,0,1-3.531-1.051,7.963,7.963,0,0,1-2.156-1.642l-1.1-1.1.356,1.734c.2.954.359,1.835.362,1.959,0,.192-.117.225-.822.225a2.317,2.317,0,0,1-.884-.1Z" /></g></svg>


