<svg xmlns="http://www.w3.org/2000/svg" width="88" height="88" viewBox="0 0 88 88"><defs><style>.a{opacity:0;}.b{fill:#ba00ff;stroke:#707070;}.c{fill:#fff;font-size:20px;font-family:BigNoodleTitling;}.d{fill:#ffbc36;}.e,.h{fill:none;}.e{stroke:#1c1c1c;stroke-linecap:round;stroke-width:4px;}.f{fill:#1c1c1c;}.g{stroke:none;}</style></defs><g transform="translate(-1852 -134)"><g class="a" transform="translate(1852 134)"><g class="b" transform="translate(88) rotate(90)"><rect class="g" width="88" height="88"/><rect class="h" x="0.5" y="0.5" width="87" height="87"/></g><text class="c" transform="translate(26 51)"><tspan x="0" y="0">88X88</tspan></text><rect class="d" width="66" height="66" transform="translate(11 11)"/></g><g transform="translate(1860.129 146.263)"><path class="e" d="M2.832,4.387H4.508a6.412,6.412,0,0,1,6.129,4.527L20.676,41.54a6.413,6.413,0,0,0,6.129,4.527H49.62a6.413,6.413,0,0,0,6.035-4.246l6.681-18.612a9.619,9.619,0,0,0-9.053-12.868h-24.8" transform="translate(0)"/><circle class="f" cx="4.809" cy="4.809" r="4.809" transform="translate(22.069 52.479)"/><circle class="f" cx="4.809" cy="4.809" r="4.809" transform="translate(44.512 52.479)"/></g></g></svg>