<svg xmlns="http://www.w3.org/2000/svg" width="88" height="88" viewBox="0 0 88 88"><defs><style>.a{opacity:0;}.b{fill:#ba00ff;stroke:#707070;}.c{fill:#fff;font-size:20px;font-family:BigNoodleTitling;}.d{fill:#ffbc36;}.e,.g{fill:none;}.e{stroke:#000;stroke-linecap:round;stroke-linejoin:round;stroke-width:4px;}.f{stroke:none;}</style></defs><g transform="translate(-1984 -134)"><g class="a" transform="translate(1984 134)"><g class="b" transform="translate(88) rotate(90)"><rect class="f" width="88" height="88"/><rect class="g" x="0.5" y="0.5" width="87" height="87"/></g><text class="c" transform="translate(26 51)"><tspan x="0" y="0">88X88</tspan></text><rect class="d" width="66" height="66" transform="translate(11 11)"/></g><g transform="translate(1999.229 143.639)"><path class="e" d="M38.361,19.18A15.18,15.18,0,1,1,23.18,4,15.181,15.181,0,0,1,38.361,19.18Z" transform="translate(5.59)"/><path class="e" d="M38.951,14H18.591a18.144,18.144,0,0,0-3.566.175,9.76,9.76,0,0,0-6.659,5.78A29.7,29.7,0,0,0,7.1,23.973,25.276,25.276,0,0,0,6.01,28.757c-.166,3.577,1.767,6.806,4.637,7.747a15.006,15.006,0,0,0,4.114.267h28.02a15,15,0,0,0,4.114-.267c2.87-.941,4.8-4.17,4.637-7.747a25.289,25.289,0,0,0-1.091-4.784,29.664,29.664,0,0,0-1.266-4.018,9.759,9.759,0,0,0-6.659-5.78A18.14,18.14,0,0,0,38.951,14Z" transform="translate(0 27.951)"/></g></g></svg>