<svg xmlns="http://www.w3.org/2000/svg" width="88" height="88" viewBox="0 0 88 88"><defs><style>.a{opacity:0;}.b{fill:#ba00ff;stroke:#707070;}.c{fill:#fff;font-size:20px;font-family:BigNoodleTitling;}.d{fill:#ffbc36;}.e{stroke:none;}.f{fill:none;}</style></defs><g transform="translate(-88 -134)"><g class="a" transform="translate(88 134)"><g class="b" transform="translate(88) rotate(90)"><rect class="e" width="88" height="88"/><rect class="f" x="0.5" y="0.5" width="87" height="87"/></g><text class="c" transform="translate(26 51)"><tspan x="0" y="0">88X88</tspan></text><rect class="d" width="66" height="66" transform="translate(11 11)"/></g><g transform="translate(99.244 145.532)"><path d="M39.956,6.818a23.313,23.313,0,1,0,0,32.97A23.338,23.338,0,0,0,39.956,6.818ZM36.719,36.551a18.735,18.735,0,1,1,0-26.5A18.737,18.737,0,0,1,36.719,36.551Z" transform="translate(0 0)"/><path d="M337.061,330.424l-16.919-16.481a2.362,2.362,0,0,0-3.318.022l-2.683,2.683a2.357,2.357,0,0,0-.02,3.315l16.48,16.919a4.207,4.207,0,0,0,6.623.25C339.316,335.046,339.27,332.254,337.061,330.424Z" transform="translate(-273.318 -273.312)"/></g></g></svg>